<?xml version="1.0" encoding="UTF-8"?>
<!DOCTYPE svg PUBLIC "-//W3C//DTD SVG 1.1//EN" "http://www.w3.org/Graphics/SVG/1.1/DTD/svg11.dtd">
<!-- Creator: CorelDRAW 2021 (64 Bit) -->
<svg xmlns="http://www.w3.org/2000/svg" xml:space="preserve" width="80mm" height="28.7896mm" version="1.1" style="shape-rendering:geometricPrecision; text-rendering:geometricPrecision; image-rendering:optimizeQuality; fill-rule:evenodd; clip-rule:evenodd"
viewBox="0 0 1283.72 461.97"
 xmlns:xlink="http://www.w3.org/1999/xlink"
 xmlns:xodm="http://www.corel.com/coreldraw/odm/2003">
 <defs>
  <style type="text/css">
   <![CDATA[
    .str0 {stroke:#373435;stroke-width:3.21;stroke-miterlimit:22.9256}
    .fil6 {fill:#FEFEFE}
    .fil0 {fill:#373435}
    .fil5 {fill:#FFF212}
    .fil2 {fill:#ED3237}
    .fil4 {fill:#17B255}
    .fil3 {fill:#00AFEF}
    .fil1 {fill:#373435;fill-rule:nonzero}
   ]]>
  </style>
 </defs>
 <g id="Camada_x0020_1">
  <metadata id="CorelCorpID_0Corel-Layer"/>
  <g id="_2650515528384">
   <path class="fil0" d="M570.64 186.99l1.04 -52.36c0.25,-12.1 3.14,-24.2 14.94,-24.2 11.81,0 13.86,12.11 13.68,24.2l-1.37 86.48c-0.18,11.49 5.84,17.7 17.35,17.7l25.38 0c11.5,0 17.86,-6.2 18.05,-17.7l1.37 -86.48c0.19,-12.1 3.14,-24.2 14.94,-24.2 11.81,0 13.93,12.1 13.68,24.2l-1.01 50.56c8.34,-5.91 19.34,-8.82 30.99,-8.82 11.2,0 21.74,2.71 29.83,8.19l1.07 -53.77c0.5,-25.37 -10.16,-67.86 -53.24,-67.86 -16.52,0 -31.32,2.37 -47.95,22.13 -7.71,-12.69 -20.51,-22.13 -40.57,-22.13 -16.53,0 -30.57,8.85 -36.16,22.72l0.04 -1.78c0.24,-11.5 -5.85,-17.7 -17.35,-17.7l-25.39 0c-11.5,0 -17.82,6.2 -18.05,17.7l-2.04 102.84c4.73,-3.07 10.65,-4.74 17.54,-4.74l25.38 0c7.09,0 13.15,1.78 17.85,5.02zm259.2 37.63c51.96,0 16.6,-42.65 63.61,-42.65l24.19 0 1.94 -98.1c0.23,-11.5 -5.85,-17.7 -17.36,-17.7l-25.37 0c-11.5,0 -17.82,6.2 -18.05,17.7l-1.34 67.27c-0.23,12.1 -2.88,26.26 -18.52,26.26 -15.63,0 -18,-14.16 -17.77,-26.26l1.34 -67.27c0.23,-11.5 -5.85,-17.7 -17.35,-17.7l-25.39 0c-11.5,0 -17.82,6.2 -18.05,17.7l-1.45 73.18c-0.51,25.37 4.57,67.57 52.65,67.57l16.91 0zm160.62 0c36,0 67.87,-15.35 68.57,-50.16 -0.17,-21.24 -14.89,-37.77 -48.29,-49.56l-16.97 -7.09c-7.04,-2.35 -10.25,-4.14 -10.18,-7.96 0.08,-3.84 3.4,-7.38 9.9,-7.38 3.83,0 7.64,0.89 10.85,3.25 6.69,5.01 11.35,7.96 20.84,5.32l10.68 -2.95c12.16,-3.25 17.67,-12.98 9.91,-23.31 -12.09,-15.64 -29.67,-21.84 -50.91,-21.84 -35.7,0 -63.54,20.06 -64.16,51.05 -0.67,33.93 38.96,43.96 47.46,47.21l17.57 6.49c9.09,3.25 10.21,5.31 10.16,8.26 -0.09,5.01 -5.75,7.67 -14.61,7.67 -7.38,0 -13.53,-1.47 -18.17,-5.61 -7.84,-7.37 -11.56,-12.39 -21.64,-10.03l-11.87 2.66c-7.59,1.78 -12.96,6 -14.17,11.89 14.2,2.51 22.78,13.33 22.48,29.11l-0.07 3.58c11.2,6.35 25.62,9.41 42.63,9.41zm107.1 -167.89c21.82,0 34.16,-11.8 34.46,-27.14 0.3,-15.34 -10.38,-27.14 -33.39,-27.14 -23.02,0 -34.17,11.8 -34.48,27.14 -0.3,15.35 11.56,27.14 33.4,27.14zm-15.97 164.65l25.39 0c11.5,0 17.83,-6.2 18.05,-17.7l2.38 -119.8c0.24,-11.5 -5.85,-17.7 -17.35,-17.7l-25.38 0c-11.5,0 -17.82,6.2 -18.05,17.7l-2.38 119.8c-0.22,11.5 5.84,17.7 17.35,17.7zm140 3.25c17.11,0 35.79,-4.14 51.31,-13.28 10.44,-5.9 10.93,-15.94 4.03,-24.79l-7.19 -9.15c-6.62,-8.55 -14.29,-8.26 -24.72,-3.54 -7.14,2.95 -13.65,3.83 -18.37,3.83 -20.07,0 -34.24,-14.16 -33.84,-33.93 0.39,-19.77 15.12,-33.94 35.19,-33.94 4.72,0 11.2,0.88 18.22,3.83 10.24,4.72 17.62,4.72 24.56,-3.83l7.56 -8.86c7.55,-9.15 7.45,-18.59 -2.17,-24.78 -15.45,-9.15 -33.96,-13.28 -51.37,-13.28 -53.11,0 -91.89,36 -92.78,80.85 -0.89,44.84 36.45,80.84 89.57,80.84z"/>
   <path class="fil1" d="M638.79 410.3c12.39,0 24.84,-2.95 37.38,-9.73 7.46,-4.13 9.05,-10.34 6.23,-16.83l-7.62 -16.81c-3.13,-6.5 -8.12,-7.68 -15.53,-5.91 -1.78,0.29 -3.55,0.58 -4.74,0.58 -5.9,0 -12.37,-1.18 -18.36,-11.51l-14.23 -26.27 37.3 -50.46c8.8,-12.1 4.26,-21.55 -10.49,-21.55l-28.04 0c-9.73,0 -16.01,3.55 -21.18,11.81l-31.39 50.17 2.03 -102.4c0.23,-11.52 -5.84,-17.71 -17.36,-17.71l-25.38 0c-11.51,0 -17.83,6.2 -18.06,17.71l-3.54 177.96c-0.23,11.5 5.85,17.7 17.35,17.7l25.38 0c11.52,0 17.84,-6.2 18.06,-17.7l1 -50.47 12.96 30.98c13.27,30.7 33.13,40.44 58.22,40.44z"/>
   <path class="fil1" d="M702.65 407.05l25.39 0c11.5,0 17.83,-6.19 18.05,-17.7l2.38 -119.82c0.23,-11.5 -5.85,-17.71 -17.35,-17.71l-25.37 0c-11.53,0 -17.84,6.21 -18.08,17.71l-2.38 119.82c-0.22,11.51 5.85,17.7 17.36,17.7z"/>
   <path class="fil1" d="M718.6 242.38c21.85,0 34.17,-11.79 34.48,-27.14 0.3,-15.35 -10.37,-27.15 -33.4,-27.15 -23.02,0 -34.16,11.8 -34.46,27.15 -0.3,15.35 11.56,27.14 33.39,27.14z"/>
   <path class="fil1" d="M827.17 410.3c20.07,0 36.18,-8.55 44.72,-22.43l-0.03 1.48c-0.23,11.5 5.85,17.7 17.35,17.7l25.38 0c11.51,0 17.84,-6.2 18.06,-17.7l3.53 -177.96c0.23,-11.52 -5.86,-17.71 -17.36,-17.71l-25.38 0c-11.51,0 -17.83,6.2 -18.06,17.71l-1.19 59.91c-7.98,-14.17 -23.75,-22.73 -43.82,-22.73 -41.31,0 -73.56,33.95 -74.49,80.87 -0.93,46.92 29.97,80.86 71.28,80.86zm17.46 -46.33c-17.71,0 -28.34,-15.05 -27.95,-34.53 0.39,-19.48 11.61,-34.53 29.32,-34.53 17.7,0 28.33,15.05 27.94,34.53 -0.39,19.48 -11.61,34.53 -29.31,34.53z"/>
   <path class="fil1" d="M1008.14 410.3c36,0 67.88,-15.34 68.57,-50.16 -0.16,-21.25 -14.89,-37.78 -48.29,-49.58l-16.98 -7.08c-7.03,-2.36 -10.25,-4.13 -10.17,-7.97 0.08,-3.83 3.39,-7.37 9.88,-7.37 3.84,0 7.66,0.89 10.86,3.24 6.69,5.02 11.34,7.97 20.85,5.32l10.68 -2.95c12.17,-3.25 17.67,-12.99 9.9,-23.31 -12.08,-15.65 -29.66,-21.84 -50.91,-21.84 -35.71,0 -63.55,20.07 -64.17,51.05 -0.67,33.95 38.97,43.98 47.46,47.23l17.58 6.49c9.09,3.24 10.22,5.31 10.17,8.26 -0.1,5.02 -5.77,7.68 -14.61,7.68 -7.37,0 -13.55,-1.48 -18.19,-5.61 -7.82,-7.37 -11.56,-12.39 -21.65,-10.02l-11.85 2.65c-11.27,2.66 -17.62,10.63 -12.82,21.54 9.89,22.14 32.4,32.47 63.69,32.47z"/>
   <path class="fil0 str0" d="M237.2 20.22c2.42,-1.82 4.97,-3.47 7.66,-4.92 7.95,-4.54 16.77,-7.3 25.89,-8.09 1.55,-0.14 3.12,-0.21 4.68,-0.23 25.54,-0.75 52.31,5.9 76.23,14.46 22.68,8.12 44.85,18.63 65.5,31.05 12.63,7.6 32.19,20.25 39.92,32.66l0.16 0.26 0.16 0.27c1.52,2.61 2.72,5.39 3.59,8.29 4.17,13.98 -0.12,27.95 -7.31,40.18 2.44,1.79 4.74,3.76 6.89,5.91 6.63,6.31 11.81,13.97 15.18,22.47 0.57,1.45 1.09,2.92 1.56,4.41 8.05,24.25 9.37,51.81 8.03,77.18 -1.27,24.06 -4.97,48.31 -10.94,71.65 -3.65,14.27 -10.16,36.63 -19.81,47.61l-0.23 0.26 -0.24 0.26c-12.9,13.64 -30.67,14.37 -47.44,10.28 -1.02,2.85 -2.24,5.64 -3.69,8.32 -4.14,8.16 -9.99,15.32 -17.17,21 -1.22,0.97 -2.48,1.89 -3.78,2.76 -20.92,14.68 -46.93,23.86 -71.62,29.86 -23.41,5.69 -47.7,9.11 -71.78,10.09 -14.74,0.6 -38.03,0.81 -51.32,-5.32l-0.3 -0.14 -0.3 -0.15c-2.68,-1.35 -5.21,-2.99 -7.51,-4.92 -32.39,-27.2 -7.96,-96.76 5.34,-129.38 7.69,-18.87 16.64,-37.4 27.11,-54.89 6.03,-10.08 13.75,-21.95 22.54,-30.99 -6.75,-1.59 -13.9,-2.64 -19.18,-3.35 -18.42,-2.47 -37.1,-3.27 -55.67,-2.92 -16.62,0.31 -33.5,1.58 -49.86,4.65 -3.8,0.71 -7.59,1.53 -11.34,2.51l-13.22 3.45 -8.29 -10.86c-6.3,-8.24 -11.14,-17.63 -13.23,-27.83 -2.06,-8.9 -2.17,-18.17 -0.31,-27.12 0.32,-1.53 0.69,-3.05 1.12,-4.54 6.61,-24.69 20.67,-48.42 35.75,-68.87 14.29,-19.4 30.73,-37.61 48.55,-53.82 10.92,-9.93 28.64,-25.07 42.79,-28.88l0.25 -0.07 0.26 -0.06c18.28,-4.46 33.61,4.79 45.4,17.48zm133.19 369.14c0.91,-0.61 1.81,-1.27 2.69,-1.97 5.06,-4 8.98,-8.95 11.71,-14.42 1.9,-3.45 3.29,-7.34 4.2,-11.57 -23.75,-10.56 -47.09,-28.25 -60.22,-38.83 -21.05,-16.97 -60.6,-52.86 -70.3,-78.45 -1.85,-4.68 -3.06,-9.59 -3.6,-14.59l-0 -0.03c-0.27,0.2 -0.53,0.41 -0.8,0.62 -31.66,24.1 -97.75,172.44 -58.13,192.13 19.1,8.81 123.05,3.29 174.45,-32.9zm-94.54 -361.84c-1.1,0.01 -2.21,0.07 -3.33,0.16 -6.42,0.56 -12.42,2.54 -17.71,5.6 -3.49,1.84 -6.8,4.33 -9.89,7.37 14.2,22.21 24.03,50.19 28.95,65.54 8.25,25.75 21.53,77.48 15.55,104.19 -1.03,4.92 -2.72,9.7 -5.02,14.17l-0.01 0.02c0.34,-0.02 0.67,-0.05 1.01,-0.08 39.7,-2.71 176.49,-90.23 154.23,-128.47 -11.1,-17.86 -100.95,-70.44 -163.78,-68.5zm-191.84 132.4c-0.31,1.06 -0.58,2.14 -0.8,3.24 -1.31,6.31 -1.14,12.63 0.27,18.57 1.31,6.64 4.58,13.32 9.48,19.73 24.34,-6.35 52.83,-7.58 66,-7.83 19.48,-0.36 39.48,0.51 58.79,3.1 12.23,1.64 30,4.66 40.83,10.77 4.96,2.69 9.39,6.23 13.07,10.48 1.69,-3.28 2.97,-6.85 3.76,-10.65 8.8,-38.8 -35.75,-194.96 -78.77,-184.63 -20.3,5.51 -96.46,76.47 -112.64,137.21z"/>
   <path class="fil0 str0" d="M262.89 218c-2.25,-1.93 -4.72,-3.62 -7.32,-5.07 -10.2,-5.68 -27.07,-8.49 -38.64,-10.04 -19.11,-2.56 -38.58,-3.41 -57.85,-3.05 -17.31,0.32 -35.21,1.7 -52.23,4.89 -4.13,0.78 -8.25,1.67 -12.32,2.73l-4 1.04 -2.51 -3.28c-5,-6.55 -8.99,-14.06 -10.62,-22.18 -1.64,-6.96 -1.74,-14.16 -0.29,-21.16 0.26,-1.23 0.56,-2.44 0.9,-3.64 6.09,-22.81 19.55,-45.31 33.47,-64.19 13.63,-18.5 29.65,-36.25 46.66,-51.72 8.45,-7.69 25.76,-22.63 36.87,-25.65l0.09 -0.02 0.09 -0.02c15.45,-3.71 29.25,8.15 40.59,24.85 4.43,-5.5 9.76,-10.35 16.01,-13.67 6.19,-3.57 13.06,-5.73 20.18,-6.35 1.24,-0.11 2.49,-0.17 3.74,-0.18 23.6,-0.72 49.01,5.72 71.1,13.63 21.64,7.75 43.24,18 62.94,29.84 9.79,5.89 29.07,18.17 35.15,27.96l0.04 0.08 0.05 0.08c0.95,1.64 1.71,3.37 2.25,5.18 4.22,14.14 -5.26,29.63 -14.39,40.83 6.54,2.67 12.71,6.38 17.69,11.41 5.2,4.91 9.24,10.87 11.88,17.51 0.46,1.16 0.87,2.34 1.25,3.53 7.46,22.4 8.6,48.59 7.37,72.01 -1.21,22.95 -4.82,46.59 -10.52,68.86 -2.83,11.07 -9.06,33.06 -16.69,41.7l-0.06 0.07 -0.06 0.07c-10.86,11.6 -28.91,9.28 -47.57,1.57 -0.67,7.03 -2.46,14.01 -5.85,20.23 -3.21,6.38 -7.76,11.97 -13.36,16.41 -0.98,0.77 -1.99,1.51 -3.03,2.21 -19.31,13.58 -44.07,22.19 -66.87,27.73 -22.33,5.43 -46.01,8.76 -68.98,9.7 -11.42,0.47 -34.27,0.81 -44.74,-4.01l-0.08 -0.04 -0.08 -0.04c-1.69,-0.84 -3.28,-1.88 -4.72,-3.09 -25.25,-21.2 -0.53,-88.65 9.39,-113 7.38,-18.09 16.1,-36.17 26.13,-52.94 6.42,-10.74 16.27,-25.92 26.29,-33.57 3.4,-2.68 7.13,-4.9 11.12,-6.58l1.52 -0.64zm194.87 -44.74c-0.33,-1.05 -0.7,-2.11 -1.11,-3.15 -2.38,-5.99 -5.99,-11.17 -10.45,-15.36 -2.76,-2.81 -6.08,-5.26 -9.88,-7.34 -16.94,19.71 -40.58,37 -54.49,46.54 -22.29,15.29 -68.03,42.87 -95.33,44.81 -5.01,0.42 -10.06,0.18 -15.01,-0.74l-0.02 -0c0.12,0.31 0.24,0.63 0.36,0.94 13.99,37.25 137.11,143.15 167.35,110.85 13.92,-15.76 38.49,-116.92 18.58,-176.55z"/>
   <path class="fil2" d="M370.39 389.36c0.91,-0.61 1.81,-1.27 2.69,-1.97 5.06,-4 8.98,-8.95 11.71,-14.42 1.9,-3.45 3.29,-7.34 4.2,-11.57 -23.75,-10.56 -47.09,-28.25 -60.22,-38.83 -21.05,-16.97 -60.6,-52.86 -70.3,-78.45 -1.85,-4.68 -3.06,-9.59 -3.6,-14.59l-0 -0.03c-0.27,0.2 -0.53,0.41 -0.8,0.62 -31.66,24.1 -97.75,172.44 -58.13,192.13 19.1,8.81 123.05,3.29 174.45,-32.9z"/>
   <path class="fil3" d="M457.76 173.27c-0.33,-1.05 -0.7,-2.11 -1.11,-3.15 -2.38,-5.99 -5.99,-11.17 -10.45,-15.36 -2.76,-2.81 -6.08,-5.26 -9.88,-7.34 -16.94,19.71 -40.58,37 -54.49,46.54 -22.29,15.29 -68.03,42.87 -95.33,44.81 -5.01,0.42 -10.06,0.18 -15.01,-0.74l-0.02 -0c0.12,0.31 0.24,0.63 0.36,0.94 13.99,37.25 137.11,143.15 167.35,110.85 13.92,-15.76 38.49,-116.92 18.58,-176.55z"/>
   <path class="fil4" d="M275.86 27.52c-1.1,0.01 -2.21,0.07 -3.33,0.16 -6.42,0.56 -12.42,2.54 -17.71,5.6 -3.49,1.84 -6.8,4.33 -9.89,7.37 14.2,22.21 24.03,50.19 28.95,65.54 8.25,25.75 21.53,77.48 15.55,104.19 -1.03,4.92 -2.72,9.7 -5.02,14.17l-0.01 0.02c0.34,-0.02 0.67,-0.05 1.01,-0.08 39.7,-2.71 176.49,-90.23 154.23,-128.47 -11.1,-17.86 -100.95,-70.44 -163.78,-68.5z"/>
   <path class="fil5" d="M84.02 159.92c-0.31,1.06 -0.58,2.14 -0.8,3.24 -1.31,6.31 -1.14,12.63 0.27,18.57 1.31,6.64 4.58,13.32 9.48,19.73 24.34,-6.35 52.83,-7.58 66,-7.83 19.48,-0.36 39.48,0.51 58.79,3.1 12.23,1.64 30,4.66 40.83,10.77 4.96,2.69 9.39,6.23 13.07,10.48 1.69,-3.28 2.97,-6.85 3.76,-10.65 8.8,-38.8 -35.75,-194.96 -78.77,-184.63 -20.3,5.51 -96.46,76.47 -112.64,137.21z"/>
   <path class="fil0" d="M147.17 148.57c0.09,-6.14 14.48,-66.72 15.14,-75.45 0.96,-12.55 -10.1,-24.28 -20.69,-24.73 -8.56,-0.35 -12.92,1.68 -19.06,3.77 -5.58,1.91 -11.94,3.98 -17.72,5.79l-34.41 11.16c-12.39,5.5 -13.68,15.01 -16.82,29.28 -10.81,49.05 -23.22,98.96 -34.48,148.12 -2.78,12.14 -5.78,24.22 -8.45,36.84 -4.66,22.04 -16.64,56.1 -7.06,77.08 11.62,25.41 36.87,30.09 62.45,22.94 7.67,-2.15 26.04,-8.88 33.44,-12.86l-11.91 60.29c-1.57,8.4 -1.51,12.98 2.62,19.87 2.75,4.54 8.11,8.72 13.79,10.32 8.51,2.41 12.93,-0.16 19.51,-2.43l54.38 -18.96c15.23,-5.16 16.18,-14.48 19.12,-29.11l16.62 -81.02c0.04,-0.2 0.41,-1.99 0.55,-2.29 1.2,-2.89 9.57,-5.4 14.18,-7.88 -0.07,3.06 -1.16,7.04 -1.79,10.25 -0.75,3.92 -1.22,6.81 -2.07,10.66l-8.26 41.28c-1.25,6.48 -3.81,14.01 -2.92,21.66 1.36,11.97 14.35,22.9 29.29,19.26l59.94 -15.58c16.99,-4.69 17.51,-17.37 20.14,-29.53l34.14 -165.38c1.39,-6.89 2.65,-13.88 4.2,-20.58 3.36,-14.55 3.92,-29.43 -2.84,-41.44 -15.01,-26.67 -49.81,-20.78 -79.14,-20.61l-99.97 0.67c-18.96,2.11 -23.32,8.57 -31.92,18.59z"/>
   <path class="fil6" d="M276.25 201.54l-60.3 0.38c-1.75,5.72 -2.26,12.75 -3.45,17.89 -0.8,3.37 -0.54,2.47 -3.8,3.99l-60.48 27.94c2.11,-18.1 7.78,-40.53 11.33,-58.95 6.02,-31.14 4.76,-39.22 30.87,-39.35 23.14,-0.11 46.35,0.16 69.55,0.02 12.25,-0.07 61.67,-1.9 69.29,1.48 9.13,4.02 12.03,12.12 10.01,24.29 -4.08,24.42 -12.88,62.35 -18.11,88.02 -3.95,19.46 -7.92,38.7 -11.95,58.07l-12.73 58.21c-1.71,1.32 -53.69,14.84 -59.58,15.83l23.98 -120.91c-14.88,5.46 -45.77,21.6 -63.58,29.38 -5.52,2.42 -3.66,1.83 -6.37,14.85 -1.98,9.52 -18.27,91.65 -19.52,93.44 -0.8,0.86 -0.18,0.39 -1.34,1.07 -0.79,0.48 -1.06,0.56 -2.01,0.92l-11.6 4.05c-10.77,3.83 -38.33,14.03 -46.05,15.96l20.62 -106.48 -47.24 20c-12.22,5.55 -40.37,17.97 -53.28,6.62 -13.1,-11.56 -4.33,-37.64 -0.49,-54.12l38.34 -164.79c2.24,-9.36 4.36,-18.29 6.43,-27.57 4.89,-21.9 2.79,-20.29 11.2,-22.84 8.77,-2.66 17.18,-5.68 25.82,-8.36 8.33,-2.59 17.94,-6.39 26.48,-8.36 -0.93,8.35 -21.46,104.27 -23.69,114.92l-18.05 85.26c-9.01,39.58 -6.57,29.51 47.91,5.07l94.78 -43.96c7.95,-3.84 16.02,-7.15 23.87,-11.03 3.27,-1.61 9.38,-2.97 10.67,-6.42 0.63,-1.69 2.57,-12.81 2.47,-14.53z"/>
  </g>
 </g>
</svg>
