<?xml version="1.0" encoding="UTF-8"?>
<!DOCTYPE svg PUBLIC "-//W3C//DTD SVG 1.1//EN" "http://www.w3.org/Graphics/SVG/1.1/DTD/svg11.dtd">
<svg xmlns="http://www.w3.org/2000/svg" xml:space="preserve" width="62.6226mm" height="25.6374mm" version="1.1" style="shape-rendering:geometricPrecision; text-rendering:geometricPrecision; image-rendering:optimizeQuality; fill-rule:evenodd; clip-rule:evenodd"
viewBox="0 0 6221.03 2546.86"
 xmlns:xlink="http://www.w3.org/1999/xlink"
 xmlns:xodm="http://www.corel.com/coreldraw/odm/2003">
 <defs>
  <style type="text/css">
   <![CDATA[
    .fil1 {fill:#E91451}
    .fil0 {fill:#373435}
    .fil2 {fill:#373435;fill-rule:nonzero}
   ]]>
  </style>
 </defs>
 <g id="Camada_x0020_1">
  <metadata id="CorelCorpID_0Corel-Layer"/>
  <g id="_2693363413488">
   <path class="fil0" d="M906.16 617.11c0.55,-37.8 89.19,-410.83 93.22,-464.58 5.93,-77.31 -62.18,-149.53 -127.38,-152.27 -52.68,-2.19 -79.53,10.32 -117.38,23.22 -34.37,11.75 -73.49,24.54 -109.11,35.69l-211.89 68.71c-76.31,33.85 -84.21,92.4 -103.56,180.27 -66.53,302.06 -142.96,609.32 -212.32,912.06 -17.1,74.75 -35.55,149.14 -52.01,226.85 -28.71,135.74 -102.51,345.47 -43.45,474.6 71.56,156.49 227,185.29 384.54,141.24 47.23,-13.21 160.31,-54.72 205.87,-79.17l-73.31 371.25c-9.67,51.71 -9.29,79.95 16.15,122.32 16.91,27.97 49.94,53.73 84.92,63.59 52.42,14.82 79.64,-0.97 120.14,-14.95l334.82 -116.75c93.79,-31.75 99.62,-89.15 117.73,-179.25l102.36 -498.87c0.25,-1.22 2.54,-12.27 3.38,-14.06 7.38,-17.79 58.91,-33.27 87.31,-48.53 -0.4,18.86 -7.14,43.32 -11.05,63.09 -4.59,24.12 -7.49,41.97 -12.76,65.64l-50.84 254.2c-7.66,39.91 -23.45,86.25 -17.98,133.39 8.34,73.72 88.33,141.01 180.36,118.61l369.06 -95.94c104.63,-28.89 107.8,-106.95 124.01,-181.83l210.22 -1018.31c8.54,-42.41 16.32,-85.44 25.85,-126.72 20.73,-89.57 24.12,-181.2 -17.48,-255.14 -92.41,-164.23 -306.73,-127.96 -487.3,-126.9l-615.59 4.09c-116.73,12.98 -143.59,52.76 -196.54,114.45z"/>
   <path class="fil1" d="M1701.29 942.9l-371.27 2.31c-10.78,35.2 -13.91,78.5 -21.25,110.17 -4.9,20.74 -3.33,15.19 -23.39,24.57l-372.42 172.05c12.99,-111.42 47.9,-249.57 69.77,-362.94 37.08,-191.75 29.3,-241.5 190.06,-242.28 142.46,-0.72 285.39,0.98 428.27,0.14 75.45,-0.45 379.7,-11.66 426.66,9.11 56.2,24.78 74.08,74.64 61.63,149.54 -25.11,150.38 -79.32,383.92 -111.49,541.95 -24.32,119.83 -48.78,238.33 -73.56,357.6l-78.37 358.38c-10.52,8.14 -330.58,91.39 -366.86,97.48l147.66 -744.53c-91.61,33.64 -281.8,133 -391.52,180.91 -33.95,14.91 -22.55,11.25 -39.2,91.45 -12.17,58.57 -112.5,564.32 -120.21,575.32 -4.96,5.28 -1.08,2.37 -8.25,6.6 -4.89,2.95 -6.53,3.47 -12.35,5.65l-71.43 24.9c-66.31,23.59 -236.05,86.4 -283.57,98.26l126.96 -655.64 -290.91 123.16c-75.25,34.22 -248.58,110.66 -328.04,40.79 -80.66,-71.18 -26.69,-231.75 -3.03,-333.22l236.12 -1014.67c13.78,-57.66 26.85,-112.64 39.58,-169.75 30.15,-134.86 17.19,-124.93 68.96,-140.62 53.97,-16.39 105.77,-35 158.99,-51.5 51.26,-15.94 110.43,-39.33 163.03,-51.48 -5.74,51.4 -132.11,642.06 -145.89,707.61l-111.12 525.01c-55.5,243.69 -40.44,181.72 295,31.23l583.58 -270.65c48.98,-23.62 98.62,-44.04 146.96,-67.91 20.11,-9.93 57.77,-18.31 65.67,-39.54 3.86,-10.42 15.84,-78.89 15.24,-89.5z"/>
   <path class="fil0" d="M5345.79 2175.27c251.16,0 452.31,-170.23 487.35,-382.32 35.06,-212.09 -109.83,-382.33 -360.99,-382.33 -205.89,0 -378.13,114.39 -452.86,272.45 -22.5,-158.06 -156.94,-272.45 -362.82,-272.45 -251.16,0 -452.31,170.23 -487.36,382.33 -35.05,212.08 109.84,382.32 361,382.32 205.88,0 378.13,-114.39 452.87,-272.45 22.49,158.06 156.92,272.45 362.81,272.45zm36.9 -223.25c-92.09,0 -146.61,-66.98 -131.39,-159.07 15.22,-92.1 91.87,-159.08 183.96,-159.08 90.7,0 146.83,65.59 131.38,159.08 -15.45,93.48 -93.26,159.07 -183.95,159.07zm-815.67 0c-92.09,0 -146.6,-66.98 -131.38,-159.07 15.21,-92.1 91.86,-159.08 183.95,-159.08 90.7,0 146.84,65.59 131.39,159.08 -15.45,93.48 -93.26,159.07 -183.96,159.07z"/>
   <path class="fil0" d="M5862.61 2159.93l119.99 0c54.42,0 88.56,-29.31 97.55,-83.73l139.05 -841.38c8.99,-54.41 -15.47,-83.72 -69.89,-83.72l-120 0c-54.41,0 -88.55,29.31 -97.54,83.72l-139.05 841.38c-8.99,54.42 15.47,83.73 69.89,83.73z"/>
   <path class="fil0" d="M3447.69 2159.93l119.99 0c54.42,0 88.57,-29.31 97.56,-83.73l52.57 -318.13c9.45,-57.21 31.68,-124.19 105.63,-124.19 73.95,0 75.45,66.98 65.99,124.19l-52.57 318.13c-9,54.42 15.47,83.73 69.89,83.73l119.99 0c54.42,0 88.56,-29.31 97.55,-83.73l57.18 -346.04c19.84,-120 24.9,-319.53 -202.54,-319.53 -99.07,0 -169.93,40.46 -221.24,106.05l33.99 -205.69c-36.9,13.85 -77.07,20.81 -120.36,20.81 -60.03,0 -118.02,-12.93 -162.64,-47.67l-130.89 792.07c-8.99,54.42 15.47,83.73 69.89,83.73z"/>
   <path class="fil0" d="M3059.25 2175.27c80.93,0 172.06,-19.53 251.77,-62.79 53.45,-27.91 62.68,-75.34 36.11,-117.2l-27.74 -43.25c-25.4,-40.47 -61.91,-39.07 -114.44,-16.75 -35.79,13.96 -67.17,18.14 -89.51,18.14 -94.88,0 -152.18,-66.98 -136.73,-160.46 15.45,-93.49 94.88,-160.47 189.76,-160.47 22.33,0 52.33,4.18 83.53,18.14 45.14,22.32 80.02,22.32 118.8,-18.14l41.8 -41.86c42.03,-43.25 48.01,-87.91 6.8,-117.2 -66.8,-43.25 -151.48,-62.79 -233.8,-62.79 -251.17,0 -459.29,170.23 -494.34,382.33 -35.04,212.08 116.83,382.32 367.98,382.32z"/>
   <path class="fil0" d="M2341.24 2175.27c170.24,0 331.53,-72.56 358.73,-237.21 13.81,-100.46 -44.44,-178.6 -194.28,-234.42l-75.4 -33.49c-31.64,-11.17 -45.6,-19.53 -42.61,-37.67 3,-18.14 21.12,-34.89 51.82,-34.89 18.14,0 35.58,4.19 49.08,15.35 28.17,23.72 48.19,37.68 94.92,25.11l52.54 -13.95c59.74,-15.35 92.47,-61.39 62.86,-110.23 -46.38,-73.95 -125.26,-103.26 -225.72,-103.26 -168.84,0 -314.28,94.88 -338.5,241.39 -26.51,160.47 154.02,207.9 191.95,223.26l78.65 30.7c40.71,15.34 44.68,25.11 42.38,39.06 -3.92,23.72 -32.5,36.28 -74.37,36.28 -34.89,0 -63.03,-6.97 -82.13,-26.5 -31.92,-34.89 -46.13,-58.61 -95.42,-47.45l-57.89 12.56c-55.09,12.56 -90.63,50.23 -75.44,101.86 31.54,104.66 130.91,153.49 278.81,153.49z"/>
   <path class="fil2" d="M2312.37 1254.24l124.14 0c56.29,0 92.78,-30.31 104.25,-86.61l68.81 -337.75c12.06,-59.18 37.1,-118.36 94.84,-118.36 57.73,0 57.28,59.2 45.16,118.36l-91.3 445.73c-11.53,56.29 12.67,86.61 68.95,86.61l124.14 0c56.3,0 92.72,-30.32 104.24,-86.61l91.31 -445.73c12.12,-59.16 37.1,-118.36 94.84,-118.36 57.74,0 57.22,59.18 45.17,118.36l-68.81 337.75c-11.47,56.3 12.67,86.61 68.95,86.61l124.14 0c56.3,0 92.78,-30.31 104.24,-86.61l72.65 -356.52c25.29,-124.13 11.34,-331.98 -199.39,-331.98 -80.83,0 -155.36,11.55 -254.44,108.26 -26.33,-62.07 -80.43,-108.26 -178.58,-108.26 -80.83,0 -157.49,43.3 -197.29,111.14l1.76 -8.66c11.47,-56.29 -12.67,-86.61 -68.95,-86.61l-124.14 0c-56.29,0 -92.78,30.32 -104.24,86.61l-119.41 586.02c-11.46,56.3 12.68,86.61 68.96,86.61zm1374.59 15.87c102.48,0 177.4,-41.85 233.09,-109.69l-1.47 7.21c-11.47,56.3 12.67,86.61 68.96,86.61l124.13 0c56.29,0 92.78,-30.31 104.24,-86.61l119.41 -586.02c11.46,-56.29 -12.68,-86.61 -68.96,-86.61l-124.14 0c-56.29,0 -92.78,30.32 -104.24,86.61l-67.06 329.1c-12.05,59.18 -37.72,128.46 -114.22,128.46 -76.49,0 -75.37,-69.28 -63.31,-128.46l67.05 -329.1c11.47,-56.29 -12.67,-86.61 -68.95,-86.61l-124.14 0c-56.29,0 -92.78,30.32 -104.25,86.61l-72.93 357.97c-25.29,124.13 -38.48,330.53 196.8,330.53zm846.66 0c176.09,0 345.82,-75.05 380.53,-245.37 18.28,-103.92 -38.86,-184.76 -191.65,-242.49l-76.65 -34.64c-32.29,-11.54 -46.4,-20.21 -42.58,-38.97 3.82,-18.77 23.23,-36.08 54.99,-36.08 18.76,0 36.64,4.33 50.17,15.87 28.19,24.54 48.35,38.97 97.19,25.99l54.91 -14.44c62.41,-15.87 98.1,-63.5 69.42,-114.02 -45.04,-76.5 -125.46,-106.81 -229.39,-106.81 -174.65,0 -328.89,98.15 -359.77,249.71 -33.82,165.99 151.04,215.07 189.66,230.95l80.14 31.75c41.5,15.87 45.22,25.99 42.28,40.42 -5,24.53 -35.07,37.52 -78.37,37.52 -36.08,0 -64.93,-7.21 -83.9,-27.42 -31.62,-36.09 -45.38,-60.63 -96.81,-49.07l-60.39 12.98c-57.49,12.99 -95.75,51.97 -82.09,105.37 28.46,108.25 129.31,158.77 282.32,158.77zm653.13 -821.29c106.81,0 177.75,-57.74 193.04,-132.79 15.3,-75.06 -26.35,-132.79 -138.93,-132.79 -112.58,0 -177.75,57.73 -193.04,132.79 -15.3,75.05 32.12,132.79 138.93,132.79zm-226.16 805.41l124.14 0c56.29,0 92.78,-30.31 104.24,-86.61l119.4 -586.02c11.46,-56.29 -12.67,-86.61 -68.95,-86.61l-124.14 0c-56.3,0 -92.78,30.32 -104.25,86.61l-119.4 586.02c-11.47,56.3 12.67,86.61 68.96,86.61zm660.11 15.87c83.72,0 178.77,-20.21 262.94,-64.95 56.41,-28.87 67.85,-77.94 42.02,-121.25l-26.96 -44.74c-24.67,-41.85 -62.5,-40.41 -117.71,-17.33 -37.59,14.44 -70.22,18.77 -93.32,18.77 -98.15,0 -154.75,-69.28 -135.05,-165.99 19.7,-96.71 104.55,-165.99 202.69,-165.99 23.1,0 53.97,4.33 85.68,18.77 45.81,23.1 81.9,23.1 123.62,-18.77l44.9 -43.3c45.2,-44.74 53.17,-90.93 11.71,-121.25 -67.38,-44.73 -154.2,-64.95 -239.35,-64.95 -259.82,0 -481.89,176.1 -526.59,395.49 -44.7,219.4 105.62,395.49 365.43,395.49z"/>
  </g>
 </g>
</svg>
