<?xml version="1.0" encoding="UTF-8"?>
<!DOCTYPE svg PUBLIC "-//W3C//DTD SVG 1.1//EN" "http://www.w3.org/Graphics/SVG/1.1/DTD/svg11.dtd">
<svg xmlns="http://www.w3.org/2000/svg" xml:space="preserve" width="22.5285mm" height="25.6374mm" version="1.1" style="shape-rendering:geometricPrecision; text-rendering:geometricPrecision; image-rendering:optimizeQuality; fill-rule:evenodd; clip-rule:evenodd"
viewBox="0 0 151.02 171.86"
 xmlns:xlink="http://www.w3.org/1999/xlink"
 xmlns:xodm="http://www.corel.com/coreldraw/odm/2003">
 <defs>
  <style type="text/css">
   <![CDATA[
    .fil0 {fill:#373435}
    .fil1 {fill:#E91451}
   ]]>
  </style>
 </defs>
 <g id="Camada_x0020_1">
  <metadata id="CorelCorpID_0Corel-Layer"/>
  <path class="fil0" d="M61.15 41.64c0.04,-2.55 6.02,-27.72 6.29,-31.35 0.4,-5.22 -4.2,-10.09 -8.6,-10.27 -3.55,-0.15 -5.37,0.7 -7.92,1.57 -2.32,0.79 -4.96,1.66 -7.36,2.41l-14.3 4.64c-5.15,2.28 -5.68,6.23 -6.99,12.16 -4.49,20.38 -9.65,41.12 -14.33,61.54 -1.15,5.04 -2.4,10.06 -3.51,15.31 -1.94,9.16 -6.92,23.31 -2.93,32.03 4.83,10.56 15.32,12.5 25.95,9.53 3.19,-0.89 10.82,-3.69 13.89,-5.34l-4.95 25.05c-0.65,3.49 -0.63,5.39 1.09,8.25 1.14,1.89 3.37,3.63 5.73,4.29 3.54,1 5.37,-0.07 8.11,-1.01l22.59 -7.88c6.33,-2.14 6.72,-6.02 7.94,-12.1l6.91 -33.66c0.02,-0.08 0.17,-0.83 0.23,-0.95 0.5,-1.2 3.98,-2.24 5.89,-3.27 -0.03,1.27 -0.48,2.92 -0.75,4.26 -0.31,1.63 -0.51,2.83 -0.86,4.43l-3.43 17.15c-0.52,2.69 -1.58,5.82 -1.21,9 0.56,4.97 5.96,9.51 12.17,8l24.9 -6.47c7.06,-1.95 7.27,-7.22 8.37,-12.27l14.18 -68.71c0.58,-2.86 1.1,-5.77 1.74,-8.55 1.4,-6.04 1.63,-12.23 -1.18,-17.22 -6.24,-11.08 -20.7,-8.63 -32.88,-8.56l-41.54 0.28c-7.88,0.88 -9.69,3.56 -13.26,7.72z"/>
  <path class="fil1" d="M114.8 63.62l-25.05 0.16c-0.73,2.37 -0.94,5.3 -1.43,7.43 -0.33,1.4 -0.22,1.02 -1.58,1.66l-25.13 11.61c0.88,-7.52 3.23,-16.84 4.71,-24.49 2.5,-12.94 1.98,-16.3 12.82,-16.35 9.61,-0.05 19.26,0.07 28.9,0.01 5.09,-0.03 25.62,-0.79 28.79,0.61 3.79,1.67 5,5.04 4.16,10.09 -1.69,10.15 -5.35,25.91 -7.52,36.57 -1.64,8.09 -3.29,16.08 -4.96,24.13l-5.29 24.18c-0.71,0.55 -22.31,6.17 -24.75,6.58l9.96 -50.24c-6.18,2.27 -19.02,8.97 -26.42,12.21 -2.29,1.01 -1.52,0.76 -2.65,6.17 -0.82,3.95 -7.59,38.08 -8.11,38.82 -0.33,0.36 -0.07,0.16 -0.56,0.45 -0.33,0.2 -0.44,0.23 -0.83,0.38l-4.82 1.68c-4.47,1.59 -15.93,5.83 -19.13,6.63l8.57 -44.24 -19.63 8.31c-5.08,2.31 -16.77,7.47 -22.14,2.75 -5.44,-4.8 -1.8,-15.64 -0.2,-22.49l15.93 -68.47c0.93,-3.89 1.81,-7.6 2.67,-11.45 2.03,-9.1 1.16,-8.43 4.65,-9.49 3.64,-1.11 7.14,-2.36 10.73,-3.48 3.46,-1.08 7.45,-2.65 11,-3.47 -0.39,3.47 -8.91,43.33 -9.84,47.75l-7.5 35.43c-3.75,16.44 -2.73,12.26 19.91,2.11l39.38 -18.26c3.3,-1.59 6.65,-2.97 9.92,-4.58 1.36,-0.67 3.9,-1.24 4.43,-2.67 0.26,-0.7 1.07,-5.32 1.03,-6.04l-0 0z"/>
 </g>
</svg>
