<?xml version="1.0" encoding="UTF-8"?>
<!DOCTYPE svg PUBLIC "-//W3C//DTD SVG 1.1//EN" "http://www.w3.org/Graphics/SVG/1.1/DTD/svg11.dtd">
<!-- Creator: CorelDRAW 2021 (64 Bit) -->
<svg xmlns="http://www.w3.org/2000/svg" xml:space="preserve" width="22.5285mm" height="25.6374mm" version="1.1" style="shape-rendering:geometricPrecision; text-rendering:geometricPrecision; image-rendering:optimizeQuality; fill-rule:evenodd; clip-rule:evenodd"
viewBox="0 0 154.27 175.55"
 xmlns:xlink="http://www.w3.org/1999/xlink"
 xmlns:xodm="http://www.corel.com/coreldraw/odm/2003">
 <defs>
  <style type="text/css">
   <![CDATA[
    .fil0 {fill:white}
   ]]>
  </style>
 </defs>
 <g id="Camada_x0020_1">
  <metadata id="CorelCorpID_0Corel-Layer"/>
  <path class="fil0" d="M62.46 42.54c0.04,-2.61 6.15,-28.32 6.43,-32.02 0.41,-5.33 -4.29,-10.31 -8.78,-10.5 -3.63,-0.15 -5.48,0.71 -8.09,1.6 -2.37,0.81 -5.07,1.69 -7.52,2.46l-14.61 4.74c-5.26,2.33 -5.8,6.37 -7.14,12.43 -4.59,20.82 -9.85,42 -14.64,62.87 -1.18,5.15 -2.45,10.28 -3.58,15.64 -1.98,9.36 -7.07,23.81 -3,32.71 4.93,10.79 15.65,12.77 26.51,9.74 3.26,-0.91 11.05,-3.77 14.19,-5.46l-5.05 25.59c-0.67,3.56 -0.64,5.51 1.11,8.43 1.17,1.93 3.44,3.7 5.85,4.38 3.61,1.02 5.49,-0.07 8.28,-1.03l23.08 -8.05c6.46,-2.19 6.87,-6.15 8.12,-12.36l7.06 -34.39c0.02,-0.08 0.18,-0.85 0.23,-0.97 0.51,-1.23 4.06,-2.29 6.02,-3.35 -0.03,1.3 -0.49,2.99 -0.76,4.35 -0.32,1.66 -0.52,2.89 -0.88,4.52l-3.5 17.52c-0.53,2.75 -1.62,5.95 -1.24,9.19 0.58,5.08 6.09,9.72 12.43,8.18l25.44 -6.61c7.21,-1.99 7.43,-7.37 8.55,-12.53l14.49 -70.19c0.59,-2.92 1.13,-5.89 1.78,-8.73 1.43,-6.17 1.66,-12.49 -1.21,-17.59 -6.37,-11.32 -21.14,-8.82 -33.59,-8.75l-42.43 0.28c-8.05,0.89 -9.9,3.64 -13.55,7.89zm54.81 22.46l-25.59 0.16c-0.74,2.43 -0.96,5.41 -1.46,7.59 -0.34,1.43 -0.23,1.05 -1.61,1.69l-25.67 11.86c0.9,-7.68 3.3,-17.2 4.81,-25.02 2.56,-13.22 2.02,-16.65 13.1,-16.7 9.82,-0.05 19.67,0.07 29.52,0.01 5.2,-0.03 26.17,-0.8 29.41,0.63 3.87,1.71 5.11,5.14 4.25,10.31 -1.73,10.37 -5.47,26.46 -7.69,37.36 -1.68,8.26 -3.36,16.43 -5.07,24.65l-5.4 24.7c-0.73,0.56 -22.79,6.3 -25.29,6.72l10.18 -51.32c-6.31,2.32 -19.42,9.17 -26.99,12.47 -2.34,1.03 -1.55,0.78 -2.7,6.3 -0.84,4.04 -7.75,38.9 -8.29,39.66 -0.34,0.36 -0.07,0.16 -0.57,0.45 -0.34,0.2 -0.45,0.24 -0.85,0.39l-4.92 1.72c-4.57,1.63 -16.27,5.96 -19.55,6.77l8.75 -45.19 -20.05 8.49c-5.19,2.36 -17.13,7.63 -22.61,2.81 -5.56,-4.91 -1.84,-15.97 -0.21,-22.97l16.28 -69.94c0.95,-3.97 1.85,-7.76 2.73,-11.7 2.08,-9.3 1.18,-8.61 4.75,-9.69 3.72,-1.13 7.29,-2.41 10.96,-3.55 3.53,-1.1 7.61,-2.71 11.24,-3.55 -0.4,3.54 -9.11,44.26 -10.06,48.78l-7.66 36.19c-3.83,16.8 -2.79,12.53 20.33,2.15l40.23 -18.66c3.38,-1.63 6.8,-3.04 10.13,-4.68 1.39,-0.68 3.98,-1.26 4.53,-2.73 0.27,-0.72 1.09,-5.44 1.05,-6.17l-0 0z"/>
 </g>
</svg>
