<?xml version="1.0" encoding="UTF-8"?>
<!DOCTYPE svg PUBLIC "-//W3C//DTD SVG 1.1//EN" "http://www.w3.org/Graphics/SVG/1.1/DTD/svg11.dtd">
<!-- Creator: CorelDRAW 2021 (64 Bit) -->
<svg xmlns="http://www.w3.org/2000/svg" xml:space="preserve" width="22.5285mm" height="25.6374mm" version="1.1" style="shape-rendering:geometricPrecision; text-rendering:geometricPrecision; image-rendering:optimizeQuality; fill-rule:evenodd; clip-rule:evenodd"
viewBox="0 0 151.1 171.95"
 xmlns:xlink="http://www.w3.org/1999/xlink"
 xmlns:xodm="http://www.corel.com/coreldraw/odm/2003">
 <defs>
  <style type="text/css">
   <![CDATA[
    .fil1 {fill:#E91451}
    .fil0 {fill:white}
   ]]>
  </style>
 </defs>
 <g id="Camada_x0020_1">
  <metadata id="CorelCorpID_0Corel-Layer"/>
  <path class="fil0" d="M61.18 41.66c0.04,-2.55 6.02,-27.74 6.29,-31.37 0.4,-5.22 -4.2,-10.1 -8.6,-10.28 -3.56,-0.15 -5.37,0.7 -7.92,1.57 -2.32,0.79 -4.96,1.66 -7.37,2.41l-14.31 4.64c-5.15,2.29 -5.69,6.24 -6.99,12.17 -4.49,20.39 -9.65,41.14 -14.33,61.58 -1.15,5.05 -2.4,10.07 -3.51,15.32 -1.94,9.16 -6.92,23.32 -2.93,32.04 4.83,10.57 15.33,12.51 25.96,9.54 3.19,-0.89 10.82,-3.69 13.9,-5.34l-4.95 25.06c-0.65,3.49 -0.63,5.4 1.09,8.26 1.14,1.89 3.37,3.63 5.73,4.29 3.54,1 5.38,-0.07 8.11,-1.01l22.6 -7.88c6.33,-2.14 6.73,-6.02 7.95,-12.1l6.91 -33.68c0.02,-0.08 0.17,-0.83 0.23,-0.95 0.5,-1.2 3.98,-2.25 5.89,-3.28 -0.03,1.27 -0.48,2.92 -0.75,4.26 -0.31,1.63 -0.51,2.83 -0.86,4.43l-3.43 17.16c-0.52,2.69 -1.58,5.82 -1.21,9.01 0.56,4.98 5.96,9.52 12.18,8.01l24.92 -6.48c7.06,-1.95 7.28,-7.22 8.37,-12.28l14.19 -68.75c0.58,-2.86 1.1,-5.77 1.75,-8.56 1.4,-6.05 1.63,-12.23 -1.18,-17.23 -6.24,-11.09 -20.71,-8.64 -32.9,-8.57l-41.56 0.28c-7.88,0.88 -9.69,3.56 -13.27,7.73z"/>
  <path class="fil1" d="M114.86 63.66l-25.07 0.16c-0.73,2.38 -0.94,5.3 -1.43,7.44 -0.33,1.4 -0.22,1.03 -1.58,1.66l-25.14 11.62c0.88,-7.52 3.23,-16.85 4.71,-24.5 2.5,-12.95 1.98,-16.3 12.83,-16.36 9.62,-0.05 19.27,0.07 28.91,0.01 5.09,-0.03 25.64,-0.79 28.81,0.62 3.79,1.67 5,5.04 4.16,10.1 -1.7,10.15 -5.36,25.92 -7.53,36.59 -1.64,8.09 -3.29,16.09 -4.97,24.14l-5.29 24.2c-0.71,0.55 -22.32,6.17 -24.77,6.58l9.97 -50.27c-6.19,2.27 -19.03,8.98 -26.43,12.21 -2.29,1.01 -1.52,0.76 -2.65,6.17 -0.82,3.95 -7.6,38.1 -8.12,38.84 -0.33,0.36 -0.07,0.16 -0.56,0.45 -0.33,0.2 -0.44,0.23 -0.83,0.38l-4.82 1.68c-4.48,1.59 -15.94,5.83 -19.14,6.63l8.57 -44.26 -19.64 8.32c-5.08,2.31 -16.78,7.47 -22.15,2.75 -5.45,-4.81 -1.8,-15.65 -0.2,-22.5l15.94 -68.5c0.93,-3.89 1.81,-7.6 2.67,-11.46 2.04,-9.1 1.16,-8.43 4.66,-9.49 3.64,-1.11 7.14,-2.36 10.73,-3.48 3.46,-1.08 7.46,-2.66 11.01,-3.48 -0.39,3.47 -8.92,43.35 -9.85,47.77l-7.5 35.45c-3.75,16.45 -2.73,12.27 19.92,2.11l39.4 -18.27c3.31,-1.59 6.66,-2.97 9.92,-4.58 1.36,-0.67 3.9,-1.24 4.43,-2.67 0.26,-0.7 1.07,-5.33 1.03,-6.04l-0 0z"/>
 </g>
</svg>
