<?xml version="1.0" encoding="UTF-8"?>
<svg xmlns="http://www.w3.org/2000/svg" xml:space="preserve" width="62.6226mm" height="25.6374mm" version="1.1" style="shape-rendering:geometricPrecision; text-rendering:geometricPrecision; image-rendering:optimizeQuality; fill-rule:evenodd; clip-rule:evenodd" viewBox="0 0 1522.9 623.47">
 <defs>
  <style type="text/css"><![CDATA[
    .fil0 {fill:white}
    .fil1 {fill:white;fill-rule:nonzero}
  ]]></style>
 </defs>
 <g>
  <path class="fil0" d="M221.83 151.07c0.13,-9.25 21.83,-100.57 22.82,-113.73 1.45,-18.92 -15.22,-36.6 -31.18,-37.28 -12.9,-0.54 -19.47,2.53 -28.73,5.68 -8.41,2.88 -17.99,6.01 -26.71,8.74l-51.87 16.82c-18.68,8.29 -20.61,22.62 -25.35,44.13 -16.29,73.94 -35,149.16 -51.98,223.27 -4.19,18.3 -8.7,36.51 -12.73,55.53 -7.03,33.23 -25.09,84.57 -10.64,116.18 17.52,38.31 55.57,45.36 94.14,34.58 11.56,-3.23 39.24,-13.39 50.4,-19.38l-17.95 90.88c-2.37,12.66 -2.27,19.57 3.95,29.94 4.14,6.85 12.23,13.15 20.79,15.57 12.83,3.63 19.5,-0.24 29.41,-3.66l81.96 -28.58c22.96,-7.77 24.39,-21.82 28.82,-43.88l25.06 -122.12c0.06,-0.3 0.62,-3 0.83,-3.44 1.81,-4.36 14.42,-8.14 21.37,-11.88 -0.1,4.62 -1.75,10.61 -2.7,15.44 -1.12,5.9 -1.83,10.27 -3.12,16.07l-12.45 62.23c-1.87,9.77 -5.74,21.11 -4.4,32.65 2.04,18.05 21.62,34.52 44.15,29.04l90.35 -23.49c25.61,-7.07 26.39,-26.18 30.36,-44.51l51.46 -249.28c2.09,-10.38 4,-20.92 6.33,-31.02 5.08,-21.93 5.9,-44.36 -4.28,-62.46 -22.62,-40.2 -75.09,-31.32 -119.29,-31.06l-150.7 1c-28.57,3.18 -35.15,12.92 -48.11,28.02zm194.65 79.75l-90.89 0.57c-2.64,8.62 -3.4,19.22 -5.2,26.97 -1.2,5.08 -0.81,3.72 -5.73,6.01l-91.17 42.12c3.18,-27.28 11.73,-61.09 17.08,-88.85 9.08,-46.94 7.17,-59.12 46.53,-59.31 34.87,-0.18 69.86,0.24 104.84,0.03 18.47,-0.11 92.95,-2.86 104.45,2.23 13.76,6.07 18.13,18.27 15.09,36.61 -6.15,36.81 -19.42,93.98 -27.29,132.67 -5.95,29.33 -11.94,58.34 -18.01,87.54l-19.19 87.73c-2.58,1.99 -80.93,22.37 -89.81,23.86l36.15 -182.26c-22.43,8.23 -68.98,32.56 -95.84,44.29 -8.31,3.65 -5.52,2.75 -9.6,22.39 -2.98,14.34 -27.54,138.14 -29.43,140.84 -1.21,1.29 -0.27,0.58 -2.02,1.61 -1.2,0.72 -1.6,0.85 -3.02,1.38l-17.49 6.1c-16.23,5.78 -57.78,21.15 -69.42,24.05l31.08 -160.5 -71.21 30.15c-18.42,8.38 -60.85,27.09 -80.3,9.99 -19.74,-17.42 -6.53,-56.73 -0.74,-81.57l57.8 -248.39c3.37,-14.11 6.57,-27.57 9.69,-41.56 7.38,-33.01 4.21,-30.58 16.88,-34.42 13.21,-4.01 25.89,-8.57 38.92,-12.61 12.55,-3.9 27.03,-9.63 39.91,-12.6 -1.41,12.58 -32.34,157.18 -35.71,173.22l-27.2 128.52c-13.59,59.66 -9.9,44.48 72.22,7.65l142.86 -66.25c11.99,-5.78 24.14,-10.78 35.97,-16.62 4.92,-2.43 14.14,-4.48 16.08,-9.68 0.95,-2.55 3.88,-19.31 3.73,-21.91z"/>
  <path class="fil0" d="M1308.64 532.5c61.48,0 110.73,-41.67 119.3,-93.59 8.58,-51.92 -26.89,-93.59 -88.37,-93.59 -50.4,0 -92.57,28 -110.86,66.7 -5.51,-38.69 -38.42,-66.7 -88.82,-66.7 -61.48,0 -110.73,41.67 -119.31,93.59 -8.58,51.92 26.89,93.59 88.37,93.59 50.4,0 92.57,-28 110.86,-66.7 5.51,38.69 38.41,66.7 88.81,66.7zm9.03 -54.65c-22.54,0 -35.89,-16.4 -32.16,-38.94 3.73,-22.55 22.49,-38.94 45.03,-38.94 22.2,0 35.94,16.06 32.16,38.94 -3.78,22.88 -22.83,38.94 -45.03,38.94zm-199.67 0c-22.54,0 -35.89,-16.4 -32.16,-38.94 3.72,-22.55 22.49,-38.94 45.03,-38.94 22.2,0 35.95,16.06 32.16,38.94 -3.78,22.88 -22.83,38.94 -45.03,38.94z"/>
  <path class="fil0" d="M1435.16 528.75l29.37 0c13.32,0 21.68,-7.17 23.88,-20.5l34.04 -205.97c2.2,-13.32 -3.79,-20.49 -17.11,-20.49l-29.38 0c-13.32,0 -21.68,7.17 -23.88,20.49l-34.04 205.97c-2.2,13.32 3.79,20.5 17.11,20.5z"/>
  <path class="fil0" d="M843.99 528.75l29.37 0c13.32,0 21.68,-7.17 23.88,-20.5l12.87 -77.88c2.31,-14.01 7.76,-30.4 25.86,-30.4 18.1,0 18.47,16.4 16.15,30.4l-12.87 77.88c-2.2,13.32 3.79,20.5 17.11,20.5l29.37 0c13.32,0 21.68,-7.17 23.88,-20.5l14 -84.71c4.86,-29.38 6.1,-78.22 -49.58,-78.22 -24.25,0 -41.6,9.91 -54.16,25.96l8.32 -50.35c-9.03,3.39 -18.87,5.09 -29.46,5.09 -14.7,0 -28.89,-3.17 -39.81,-11.67l-32.04 193.9c-2.2,13.32 3.79,20.5 17.11,20.5z"/>
  <path class="fil0" d="M748.9 532.5c19.81,0 42.12,-4.78 61.63,-15.37 13.08,-6.83 15.35,-18.44 8.84,-28.69l-6.79 -10.59c-6.22,-9.91 -15.16,-9.56 -28.02,-4.1 -8.76,3.42 -16.44,4.44 -21.91,4.44 -23.23,0 -37.25,-16.4 -33.47,-39.28 3.78,-22.89 23.23,-39.28 46.45,-39.28 5.47,0 12.81,1.02 20.45,4.44 11.05,5.46 19.59,5.46 29.08,-4.44l10.23 -10.25c10.29,-10.59 11.75,-21.52 1.67,-28.69 -16.35,-10.59 -37.08,-15.37 -57.23,-15.37 -61.48,0 -112.43,41.67 -121.01,93.59 -8.58,51.92 28.6,93.59 90.08,93.59z"/>
  <path class="fil0" d="M573.13 532.5c41.67,0 81.16,-17.76 87.82,-58.07 3.38,-24.59 -10.88,-43.72 -47.56,-57.38l-18.46 -8.2c-7.75,-2.73 -11.16,-4.78 -10.43,-9.22 0.73,-4.44 5.17,-8.54 12.68,-8.54 4.44,0 8.71,1.03 12.02,3.76 6.9,5.81 11.8,9.22 23.24,6.15l12.86 -3.41c14.63,-3.76 22.64,-15.03 15.39,-26.98 -11.35,-18.1 -30.66,-25.28 -55.26,-25.28 -41.33,0 -76.93,23.23 -82.86,59.09 -6.49,39.28 37.7,50.89 46.99,54.65l19.25 7.51c9.97,3.75 10.94,6.15 10.37,9.56 -0.96,5.81 -7.96,8.88 -18.2,8.88 -8.54,0 -15.43,-1.71 -20.1,-6.49 -7.81,-8.54 -11.29,-14.35 -23.36,-11.61l-14.17 3.07c-13.49,3.07 -22.19,12.3 -18.47,24.94 7.72,25.62 32.05,37.57 68.25,37.57z"/>
  <path class="fil1" d="M566.07 307.04l30.39 0c13.78,0 22.71,-7.42 25.52,-21.2l16.85 -82.68c2.95,-14.49 9.08,-28.97 23.22,-28.97 14.13,0 14.02,14.49 11.06,28.97l-22.35 109.11c-2.82,13.78 3.1,21.2 16.88,21.2l30.39 0c13.78,0 22.7,-7.42 25.52,-21.2l22.35 -109.11c2.97,-14.48 9.08,-28.97 23.22,-28.97 14.13,0 14.01,14.49 11.06,28.97l-16.85 82.68c-2.81,13.78 3.1,21.2 16.88,21.2l30.39 0c13.78,0 22.71,-7.42 25.52,-21.2l17.78 -87.27c6.19,-30.39 2.78,-81.27 -48.81,-81.27 -19.79,0 -38.03,2.83 -62.29,26.5 -6.44,-15.19 -19.69,-26.5 -43.72,-26.5 -19.79,0 -38.55,10.6 -48.3,27.21l0.43 -2.12c2.81,-13.78 -3.1,-21.2 -16.88,-21.2l-30.39 0c-13.78,0 -22.71,7.42 -25.52,21.2l-29.23 143.46c-2.81,13.78 3.1,21.2 16.88,21.2zm336.5 3.89c25.09,0 43.43,-10.25 57.06,-26.85l-0.36 1.77c-2.81,13.78 3.1,21.2 16.88,21.2l30.39 0c13.78,0 22.71,-7.42 25.52,-21.2l29.23 -143.46c2.81,-13.78 -3.1,-21.2 -16.88,-21.2l-30.39 0c-13.78,0 -22.71,7.42 -25.52,21.2l-16.42 80.56c-2.95,14.49 -9.23,31.45 -27.96,31.45 -18.73,0 -18.45,-16.96 -15.5,-31.45l16.41 -80.56c2.81,-13.78 -3.1,-21.2 -16.88,-21.2l-30.39 0c-13.78,0 -22.71,7.42 -25.52,21.2l-17.85 87.63c-6.19,30.39 -9.42,80.91 48.18,80.91zm207.26 0c43.11,0 84.66,-18.37 93.15,-60.07 4.47,-25.44 -9.51,-45.23 -46.92,-59.36l-18.76 -8.48c-7.9,-2.83 -11.36,-4.95 -10.42,-9.54 0.94,-4.59 5.69,-8.83 13.46,-8.83 4.59,0 8.97,1.06 12.28,3.89 6.9,6.01 11.84,9.54 23.79,6.36l13.44 -3.54c15.28,-3.89 24.01,-15.54 16.99,-27.91 -11.03,-18.73 -30.71,-26.15 -56.15,-26.15 -42.75,0 -80.51,24.03 -88.07,61.13 -8.28,40.63 36.97,52.65 46.43,56.54l19.62 7.77c10.16,3.89 11.07,6.36 10.35,9.9 -1.22,6 -8.58,9.19 -19.19,9.19 -8.83,0 -15.89,-1.77 -20.54,-6.71 -7.74,-8.83 -11.11,-14.84 -23.7,-12.01l-14.78 3.18c-14.07,3.18 -23.44,12.72 -20.09,25.79 6.97,26.5 31.66,38.87 69.11,38.87zm159.89 -201.05c26.15,0 43.51,-14.13 47.26,-32.51 3.75,-18.38 -6.45,-32.51 -34.01,-32.51 -27.56,0 -43.51,14.13 -47.26,32.51 -3.75,18.37 7.86,32.51 34.01,32.51zm-55.36 197.16l30.39 0c13.78,0 22.71,-7.42 25.52,-21.2l29.23 -143.46c2.81,-13.78 -3.1,-21.2 -16.88,-21.2l-30.39 0c-13.78,0 -22.71,7.42 -25.52,21.2l-29.23 143.46c-2.81,13.78 3.1,21.2 16.88,21.2zm161.59 3.89c20.49,0 43.76,-4.95 64.37,-15.9 13.81,-7.07 16.61,-19.08 10.29,-29.68l-6.6 -10.95c-6.04,-10.25 -15.3,-9.89 -28.82,-4.24 -9.2,3.54 -17.19,4.59 -22.84,4.59 -24.03,0 -37.88,-16.96 -33.06,-40.63 4.82,-23.67 25.59,-40.63 49.62,-40.63 5.65,0 13.21,1.06 20.97,4.59 11.21,5.65 20.05,5.65 30.26,-4.59l10.99 -10.6c11.07,-10.95 13.02,-22.26 2.87,-29.68 -16.5,-10.95 -37.75,-15.9 -58.59,-15.9 -63.6,0 -117.97,43.11 -128.91,96.82 -10.94,53.71 25.86,96.82 89.46,96.82z"/>
 </g>
</svg>
