<?xml version="1.0" encoding="UTF-8"?>
<svg viewBox="0 0 787.99 515.19" xmlns="http://www.w3.org/2000/svg">
  <title>SonoraMente LA — Símbolo Solo Monocromático</title>
      <path fill="#1A1520" d="M59.16 389.46c17.73,1.47 16.9,8 45.38,8 30.39,0 68.96,-16.91 92.74,11.37 37.3,44.37 3.04,71.32 -7.3,71.32 -21.98,0 -34.13,-0.37 -48.06,-26.68 10.2,-2.72 21.25,-8.28 24.03,-18.67 -8.45,0 -73.79,21.31 -102.4,-33.72 -2.7,-5.2 -2.77,-8.02 -4.38,-11.63zm242.93 -357.45c-2.27,9.32 -1.82,0.83 1.28,11.88 8.04,28.61 1.36,63.18 3.94,105.81l-2.59 79.6c-0.53,16.54 2.73,20.91 2.73,34.79 -9.68,-7.09 -23.58,-48.12 -73.88,-72.89 -14.64,-7.21 -33.8,-19.51 -42.51,-32.22 -11.95,-17.46 -14.42,-32.24 -14.42,-60.28 -14.85,10.87 -12.87,44.64 -5.73,61.75 19.92,47.75 65.32,36.33 104.04,93.44 6.11,9.02 9.67,14.67 14.77,25.26 19.79,41.12 14.74,84.46 15.11,142.36 0.38,59.98 -35.64,78.87 -88.14,66.65 4.7,-12.97 19.52,-14.88 18.9,-39.91 -0.38,-15.43 -9.58,-35.77 -16.93,-44.75 -30.85,-37.65 -53.28,-32.34 -85.47,-28.09 -37.91,5.01 -72.39,-0.55 -91.98,-24.01 -36.35,-43.54 -12.3,-77.31 -8.72,-92.65 16.65,11.14 30.7,26.92 60.81,15.41 24.84,-9.49 63.31,-49.77 103.07,-27.1 7.11,4.05 8.05,7.67 12.28,9.74 18.25,8.9 15.41,-25.11 -25.41,-33.99 -25.25,-5.49 -50.8,5.75 -65.22,14.69 -15.57,9.65 -34.33,30.6 -58.87,15.97 -31.24,-18.62 -24.82,-105.68 24.07,-106.76 7.56,32.44 28.11,58.69 64.07,58.69 -1.12,-13.44 2.64,-3.76 -5.15,-10.86 -5.03,-4.58 -15.78,-6.62 -29.13,-26.91 -21.85,-33.21 -7.79,-79.66 24.03,-100.51 18.8,-12.32 30.69,-13.76 60.97,-13.76 16.85,25.14 13.03,27.04 41.17,44.23 18.97,11.58 24.88,11.19 33.75,30.29 4.12,8.87 0.74,9.81 13.18,10.84 4.94,-21.19 -4.13,-37.51 -20.24,-45.35 -3.39,3.24 -0.13,3.16 -7.74,-0.58l-21.94 -13.28c-0.47,-0.31 -1.16,-0.67 -1.62,-1 -0.64,-0.45 -2.4,-1.8 -2.99,-2.32 -11.39,-10 -18.45,-23.32 -8.38,-39.98 0.3,-0.5 0.76,-1.11 1.07,-1.6l2.03 -3.42c2.17,-3.42 0.85,-4.79 11.66,-10.01 4.27,-2.06 14.63,-5.86 21.29,-6.97 10.31,-1.71 19.01,1.52 26.69,4.26 9.39,3.35 11.6,4.87 16.16,13.55zm-96.1 2.67c-30.27,-4.64 -57.25,-3.32 -83.46,17.98 -52.1,42.34 -24.76,62.29 -50.21,72.53 -23.28,9.37 -31.97,16.23 -44.4,41 -14.2,28.28 -7.7,41.67 -6.33,66.47 0.67,12.13 -1.93,10.39 -7.77,18.13 -20.86,27.61 -15.79,68.51 -0.12,98.74 8.95,17.27 12.9,11.65 19.89,36.14 7.76,27.17 26.03,51.26 48.66,63.41 22.71,12.19 32.46,4.41 41,15.05 3.48,4.34 0.9,4.92 11.24,15.45 22.97,23.4 30.43,15.75 59.85,25.56 31.77,10.58 59.62,15.09 92.11,2.06 26.18,-10.5 42.35,-39.23 42.35,-72.39l0 -378.79c0,-26.15 -21.91,-56.02 -53.39,-56.02 -30.14,0 -52.74,3.19 -69.41,34.68z"/>
      <path fill="#1A1520" d="M606.45 361.69l-10.13 1.25c14.7,-6.98 15.88,-1.53 26.61,-8.9 -4.69,0.52 -21.58,1.71 -24.05,-3.86 -0.56,-1.27 -1.48,-1.28 -2.23,-1.94l12.46 1.4 -10.69 -2.86c-68.85,-6.9 -103.8,-47.88 -165.42,-48.12 -21.92,-0.08 -75.37,7.55 -81.86,30.61 -1.79,6.36 -0.54,4.94 -0.43,10.48l0.25 35.97c-1.43,107.46 -14.99,132.31 37,94.2 39.63,-29.05 42.88,-63.59 56.76,-84.67 30.83,-46.8 59.29,-22.09 105.64,-19.78 11.51,0.57 47.91,3.53 56.08,-3.79z"/>
      <path fill="#1A1520" d="M350.16 186.73c2.17,9.3 3.22,11.23 2.67,24.03 -0.12,2.79 -0.8,9.76 -0.83,11.06 -0.06,3.04 0.67,5.87 0.83,12.92 73.02,-48.86 153.84,-36.84 229.59,0 36.12,17.56 83.28,32.01 133.48,32.01 25.82,0 62.08,-11.74 72.08,-26.68 -75.07,17.48 -141.67,-5.2 -204.44,-43.8 -26.92,-16.56 -53.96,-32.35 -86.85,-38.6 -37.05,-7.04 -73.22,-5 -105.54,6 -21.47,7.31 -25.38,12.6 -41,23.05z"/>
      <path fill="#1A1520" d="M363.99 250.75l2.25 7.88c-10.72,2.47 -3.75,-1.01 -10.52,5.46 2.49,10.83 2.99,16.4 0.64,27.78 12.3,-0.97 24.76,-11.56 44.52,-11.52 33.45,-1.24 42.58,-8.75 83.97,-1.47 29.57,5.2 49.85,15.76 76.18,22.58 45.28,11.73 100.17,23.47 148.76,1.88 8.51,-3.78 11.7,-3.52 14.12,-12.57 -141.39,32.91 -204.2,-103.68 -322.69,-61.01 -5.24,1.89 -14.92,5.52 -20.64,8.72l-16.6 12.27z"/>
      <path fill="#1A1520" d="M352.83 69.36l-2.67 96.03c41.45,-21.91 65.31,-32.01 117.47,-32.01 25.79,0 41.26,8.65 61.4,13.34 -30.46,-57.53 -125.78,-124.25 -176.2,-125.37l0 48.02z"/>
      <path fill="#1A1520" d="M133.91 322.77c-15.7,0 -28.89,1.12 -42.59,-5.45 -6.78,-3.26 -13.24,-8.35 -21.48,-10.55 0.55,24.77 33.79,37.34 56.06,37.34 40.37,0 80.31,-43.87 118.16,-0.7 3.5,4 8.4,10.54 11.44,15.25 6.19,9.6 2.43,8.46 11.89,14.79 0.76,-9.11 10.24,-22.75 -16.6,-50.1 -42.99,-43.79 -87.51,-0.58 -116.88,-0.58z"/>
      <path fill="#1A1520" d="M265.85 93.36c-8.55,-9.16 -58.18,-27.21 -40.3,-55.11 10.38,-16.2 34.46,-23.69 56.77,-15.83 4,1.41 6.1,2.76 8.92,4.26l10.86 5.33c-4.56,-8.68 -6.77,-10.2 -16.16,-13.55 -7.68,-2.74 -16.38,-5.97 -26.69,-4.26 -6.65,1.1 -17.02,4.91 -21.29,6.97 -10.81,5.22 -9.5,6.59 -11.66,10.01l-2.03 3.42c-0.31,0.49 -0.77,1.1 -1.07,1.6 -10.07,16.66 -3.01,29.99 8.38,39.98 0.59,0.52 2.35,1.87 2.99,2.32 0.46,0.32 1.15,0.69 1.62,1l21.94 13.28c7.61,3.74 4.35,3.82 7.74,0.58z"/>
      <path fill="#1A1520" d="M400.88 280.35c-19.76,-0.04 -32.22,10.55 -44.52,11.52 2.34,-11.38 1.85,-16.95 -0.64,-27.78 6.76,-6.47 -0.21,-2.98 10.52,-5.46l-2.25 -7.88 -14.47 12.69c3.24,11.82 6.02,26.79 0.64,38l49.14 -20.1c0.34,-0.18 1.06,-0.65 1.59,-0.99z"/>
      <path fill="#1A1520" d="M609.12 349.64l-12.46 -1.4c0.74,0.66 1.67,0.67 2.23,1.94 2.46,5.57 19.36,4.38 24.05,3.86 -10.73,7.38 -11.91,1.93 -26.61,8.9l10.13 -1.25c11.75,1.87 16.07,-0.94 24.04,-4.23 9.66,-3.99 12.74,-2.59 18.67,-10.68 -14.67,0 -23.1,2.38 -40.05,2.86z"/>
    </svg>
