<?xml version="1.0" encoding="UTF-8"?>
<svg viewBox="0 0 3064.89 680" xmlns="http://www.w3.org/2000/svg">
  <title>SonoraMente LA — Logo Horizontal Branco</title>
      <path fill="#FFFFFF" d="M78.09 514.05c23.4,1.95 22.3,10.57 59.9,10.57 40.11,0 91.02,-22.32 122.4,15.01 49.23,58.56 4.01,94.13 -9.64,94.13 -29.01,0 -45.04,-0.49 -63.43,-35.21 13.47,-3.59 28.05,-10.93 31.71,-24.64 -11.14,0 -97.39,28.13 -135.16,-44.51 -3.57,-6.87 -3.66,-10.58 -5.79,-15.34zm320.64 -471.8c-3,12.31 -2.41,1.1 1.69,15.68 10.61,37.76 1.79,83.39 5.19,139.65l-3.42 105.06c-0.7,21.83 3.6,27.6 3.6,45.92 -12.78,-9.36 -31.12,-63.51 -97.52,-96.21 -19.32,-9.52 -44.61,-25.75 -56.1,-42.53 -15.78,-23.04 -19.04,-42.56 -19.04,-79.56 -19.6,14.35 -16.99,58.93 -7.57,81.51 26.3,63.02 86.22,47.95 137.32,123.33 8.07,11.91 12.77,19.36 19.49,33.34 26.12,54.27 19.46,111.48 19.94,187.9 0.5,79.16 -47.04,104.1 -116.33,87.98 6.2,-17.11 25.76,-19.64 24.94,-52.67 -0.5,-20.37 -12.65,-47.21 -22.35,-59.07 -40.72,-49.69 -70.32,-42.69 -112.81,-37.08 -50.04,6.61 -95.54,-0.73 -121.4,-31.7 -47.97,-57.46 -16.24,-102.03 -11.52,-122.28 21.98,14.71 40.52,35.53 80.26,20.34 32.78,-12.53 83.56,-65.69 136.04,-35.77 9.38,5.35 10.63,10.13 16.21,12.85 24.08,11.75 20.34,-33.14 -33.54,-44.86 -33.34,-7.25 -67.06,7.6 -86.09,19.39 -20.55,12.73 -45.31,40.4 -77.71,21.08 -41.23,-24.58 -32.76,-139.48 31.78,-140.92 9.98,42.81 37.1,77.46 84.57,77.46 -1.48,-17.74 3.48,-4.97 -6.8,-14.33 -6.64,-6.05 -20.82,-8.74 -38.45,-35.52 -28.85,-43.83 -10.28,-105.15 31.71,-132.67 24.81,-16.26 40.51,-18.17 80.48,-18.17 22.24,33.18 17.2,35.7 54.34,58.37 25.04,15.29 32.83,14.77 44.55,39.99 5.44,11.7 0.98,12.94 17.4,14.31 6.52,-27.97 -5.45,-49.51 -26.71,-59.85 -4.47,4.27 -0.17,4.16 -10.21,-0.76l-28.96 -17.53c-0.62,-0.41 -1.53,-0.89 -2.14,-1.32 -0.85,-0.6 -3.16,-2.38 -3.94,-3.06 -15.03,-13.19 -24.35,-30.79 -11.07,-52.77 0.4,-0.66 1.01,-1.46 1.41,-2.11l2.68 -4.51c2.86,-4.52 1.12,-6.32 15.39,-13.21 5.64,-2.72 19.32,-7.74 28.1,-9.2 13.61,-2.26 25.09,2 35.23,5.62 12.39,4.42 15.31,6.42 21.33,17.88zm-126.84 3.52c-39.95,-6.12 -75.57,-4.38 -110.16,23.73 -68.77,55.88 -32.68,82.22 -66.28,95.74 -30.73,12.36 -42.19,21.43 -58.61,54.11 -18.74,37.33 -10.17,55 -8.36,87.74 0.89,16.01 -2.54,13.72 -10.25,23.93 -27.53,36.45 -20.83,90.42 -0.15,130.33 11.81,22.8 17.03,15.38 26.26,47.7 10.25,35.87 34.36,67.65 64.23,83.7 29.97,16.1 42.85,5.82 54.11,19.87 4.59,5.73 1.19,6.49 14.83,20.39 30.31,30.89 40.16,20.79 79,33.73 41.93,13.97 78.69,19.91 121.57,2.72 34.56,-13.86 55.9,-51.78 55.9,-95.55l0 -499.97c0,-34.52 -28.91,-73.94 -70.47,-73.94 -39.79,0 -69.61,4.21 -91.61,45.77z"/>
      <path fill="#FFFFFF" d="M800.45 477.4l-13.37 1.66c19.4,-9.21 20.96,-2.02 35.12,-11.75 -6.19,0.69 -28.49,2.26 -31.74,-5.09 -0.74,-1.68 -1.96,-1.69 -2.94,-2.56l16.45 1.84 -14.11 -3.77c-90.88,-9.12 -137.01,-63.2 -218.34,-63.52 -28.92,-0.11 -99.49,9.96 -108.04,40.4 -2.36,8.39 -0.72,6.52 -0.56,13.84l0.33 47.48c-1.89,141.84 -19.79,174.63 48.83,124.33 52.31,-38.34 56.6,-83.94 74.92,-111.75 40.69,-61.77 78.26,-29.16 139.43,-26.11 15.19,0.76 63.24,4.66 74.03,-5z"/>
      <path fill="#FFFFFF" d="M462.17 246.46c2.86,12.28 4.25,14.82 3.52,31.72 -0.16,3.69 -1.05,12.89 -1.09,14.6 -0.08,4.02 0.88,7.74 1.09,17.06 96.39,-64.49 203.05,-48.63 303.04,0 47.67,23.18 109.92,42.25 176.18,42.25 34.08,0 81.94,-15.5 95.14,-35.21 -99.08,23.07 -186.99,-6.86 -269.84,-57.82 -35.53,-21.86 -71.23,-42.7 -114.62,-50.95 -48.91,-9.29 -96.64,-6.59 -139.31,7.92 -28.34,9.64 -33.49,16.63 -54.12,30.43z"/>
      <path fill="#FFFFFF" d="M480.43 330.96l2.96 10.4c-14.15,3.26 -4.95,-1.33 -13.88,7.2 3.29,14.29 3.94,21.65 0.85,36.67 16.23,-1.27 32.68,-15.26 58.76,-15.2 44.15,-1.63 56.2,-11.55 110.84,-1.94 39.03,6.87 65.8,20.8 100.55,29.8 59.77,15.48 132.21,30.98 196.34,2.47 11.23,-4.99 15.44,-4.64 18.63,-16.59 -186.62,43.44 -269.52,-136.84 -425.91,-80.52 -6.92,2.49 -19.69,7.28 -27.25,11.51l-21.9 16.2z"/>
      <path fill="#FFFFFF" d="M465.7 91.55l-3.52 126.75c54.71,-28.92 86.2,-42.25 155.04,-42.25 34.05,0 54.47,11.42 81.05,17.61 -40.21,-75.93 -166.02,-164 -232.56,-165.48l0 63.38z"/>
      <path fill="#FFFFFF" d="M176.75 426.03c-20.73,0 -38.13,1.49 -56.22,-7.2 -8.94,-4.3 -17.47,-11.02 -28.35,-13.93 0.73,32.69 44.6,49.29 74,49.29 53.29,0 106,-57.91 155.96,-0.92 4.62,5.27 11.09,13.91 15.1,20.12 8.16,12.68 3.2,11.16 15.69,19.53 1,-12.02 13.51,-30.03 -21.92,-66.13 -56.74,-57.81 -115.5,-0.77 -154.27,-0.77z"/>
      <path fill="#FFFFFF" d="M350.9 123.23c-11.28,-12.09 -76.79,-35.91 -53.2,-72.74 13.7,-21.39 45.49,-31.27 74.93,-20.9 5.28,1.86 8.06,3.64 11.77,5.62l14.33 7.03c-6.02,-11.46 -8.94,-13.46 -21.33,-17.88 -10.14,-3.62 -21.63,-7.88 -35.23,-5.62 -8.78,1.46 -22.46,6.48 -28.1,9.2 -14.27,6.89 -12.53,8.7 -15.39,13.21l-2.68 4.51c-0.4,0.65 -1.01,1.45 -1.41,2.11 -13.29,21.99 -3.97,39.58 11.07,52.77 0.78,0.69 3.1,2.47 3.94,3.06 0.6,0.42 1.51,0.91 2.14,1.32l28.96 17.53c10.05,4.93 5.74,5.03 10.21,0.76z"/>
      <path fill="#FFFFFF" d="M529.13 370.03c-26.08,-0.06 -42.53,13.93 -58.76,15.2 3.09,-15.02 2.44,-22.38 -0.85,-36.67 8.93,-8.54 -0.28,-3.94 13.88,-7.2l-2.96 -10.4 -19.1 16.74c4.29,15.61 7.95,35.37 0.85,50.15l64.86 -26.53c0.46,-0.23 1.4,-0.86 2.09,-1.3z"/>
      <path fill="#FFFFFF" d="M803.97 461.49l-16.45 -1.84c0.98,0.87 2.2,0.88 2.94,2.56 3.25,7.35 25.55,5.78 31.74,5.09 -14.16,9.74 -15.72,2.54 -35.12,11.75l13.37 -1.66c15.5,2.47 21.21,-1.24 31.73,-5.58 12.76,-5.27 16.82,-3.43 24.65,-14.1 -19.36,0 -30.49,3.15 -52.86,3.78z"/>
      <path fill="#FFFFFF" d="M2152.39 460.37l42.27 0c0,-36.95 6.41,-73.87 9.94,-106.18 3.61,-32.97 11.19,-73.73 11.19,-104.93 0.48,0.74 0.95,1.14 1.11,2.41l53.88 153.77c6.79,19.41 14.27,34.79 18.97,54.94l24.65 0c5.62,-10.61 6.39,-16.76 10.56,-28.16 3.5,-9.58 7.31,-17.52 10.99,-27.72 5.27,-14.62 58.79,-160.44 66.51,-169.31 0,71.17 14.09,164.98 14.09,225.2l42.27 0c0,-18.1 -2.84,-49.63 -5.55,-68.35l-12.13 -142.7c-1.08,-21.88 -6.98,-47.53 -6.98,-70.44l-45.79 0c-1.17,14.08 -14.09,39.67 -19.65,54.26l-39.79 108.04c-3.63,10.08 -5.76,14.34 -9.68,25.51l-9.31 22.37c-0.32,0.6 -1.03,1.76 -1.29,2.23 -0.26,0.48 -0.81,1.52 -1.3,2.22l-68.37 -192.08c-10.04,-26.51 -1.14,-22.55 -51.39,-22.55l-17.31 141.04c-2.79,24.33 -5.07,43.88 -8.38,69.04 -2.44,18.55 -9.53,50.99 -9.53,71.41z"/>
      <path fill="#FFFFFF" d="M1120.35 256.29c0,24.38 15.65,44.44 32.68,58.84 33.78,28.55 99.95,34.7 95.27,83.21 -7.53,78.02 -119.65,21.74 -127.95,19.81 0,15.64 1.83,20.53 -3.52,31.67 44.02,21.1 176.12,35.16 176.12,-70.37 0,-81.59 -126.8,-78.9 -126.8,-130.19 0,-25.05 4.17,-49.27 45.79,-49.27 27.69,0 46.77,9.99 63.4,21.11 0,-17.81 2.39,-18.1 3.52,-31.67 -55.33,-29.25 -158.51,-19.5 -158.51,66.86z"/>
      <path fill="#FFFFFF" d="M2032.63 439.26c-27.44,0 -30.59,-43.44 -0.19,-56.49 8.94,-3.84 28.04,-7.83 38.94,-10.36 0,28.94 -2.04,66.85 -38.75,66.85zm-49.31 -105.56c26.22,-6.99 12.29,-21.11 59.88,-21.11 27.35,0 29.42,21.8 24.66,42.22 -28.14,0 -98.63,16.32 -98.63,63.34 0,35.17 22,45.74 52.84,45.74 26.78,0 33.68,-14.17 49.31,-24.63 23.13,43.68 63.4,20.97 63.4,7.04 0,-27.84 -25.37,20.17 -24.96,-31.36 0.64,-80.57 12.38,-130.5 -66.62,-130.5 -18.78,0 -31.8,4.58 -44.86,11.5 -23.76,12.57 -15.54,14.66 -15.02,37.76z"/>
      <path fill="#FFFFFF" d="M1750.84 442.77c-54.12,0 -52.98,-137.23 3.52,-137.23 47.41,0 47.9,77.94 32.96,113.86 -6.81,16.38 -14.79,23.37 -36.48,23.37zm-81.01 -80.93c0,29.06 -0.75,52.5 20.44,78.11 32.84,39.7 148.64,39.75 148.64,-67.55 0,-46.64 -31.55,-87.97 -77.49,-87.97 -38.8,0 -67.95,9.11 -83.69,46.58 -4.43,10.54 -7.89,17.13 -7.89,30.83z"/>
      <path fill="#FFFFFF" d="M1518.37 287.95l-21.13 0 0 172.41c68.14,0 27.97,3.38 40.69,-86.02 2.31,-16.24 3.6,-61.76 43.84,-61.76 16.85,0 24.65,11.91 24.65,28.15l0 119.64c53.85,0 38.1,21.83 38.77,-102.07 0.23,-42.96 -3,-73.87 -52.86,-73.87 -33.2,0 -37.21,18.86 -56.36,31.67l0 -31.67c-7.9,1.84 -8.1,3.52 -17.61,3.52z"/>
      <path fill="#FFFFFF" d="M1395.09 442.77c-41.96,0 -45.79,-35.72 -45.79,-77.41 0,-83.37 86.14,-79.62 82.57,6.05 -1.35,32.43 -5.12,71.36 -36.78,71.36zm-88.06 -70.37c0,113.89 117.56,104.04 146.64,65.56 19.72,-26.09 25.99,-62.46 16,-97.84 -3.63,-12.85 -7.84,-19.38 -14.5,-27.75 -37.97,-47.84 -148.15,-39.72 -148.15,60.03z"/>
      <path fill="#FFFFFF" d="M2959 372.4c0,-130.26 118.63,-37.38 43.41,-9.41 -9.85,3.66 -32.02,9.16 -43.41,9.41zm-42.27 0c0,47.47 27.64,91.48 73.97,91.48 34.17,0 73.97,0.01 73.97,-42.22 -5.81,1.55 -59.95,37.82 -90.77,2.71 -11.03,-12.56 -8.57,-21.22 -14.9,-34.38 145.29,0 123.85,-105.56 38.75,-105.56 -28.33,0 -45.41,9.48 -58.96,25.55 -11.54,13.68 -22.05,39.17 -22.05,62.42z"/>
      <path fill="#FFFFFF" d="M2515.19 372.4c11.48,-23.91 -3.92,-66.86 45.79,-66.86 23.68,0 48.4,64.76 -45.79,66.86zm38.74 91.48c78.83,0 64.99,-30.86 70.45,-42.22 -0.07,0.02 -98.31,56.63 -105.67,-31.67 40.08,0 102.15,-12.3 102.15,-49.26 0,-79.32 -143.64,-84.31 -145.56,35.73 -0.76,47.57 26.21,87.42 78.63,87.42z"/>
      <path fill="#FFFFFF" d="M2684.26 316.39c-8.25,-11.12 -3.53,-6.95 -7.03,-21.42l-25.96 -2.81 -0.45 157.65 29.58 0.06c-0.23,-40.35 -6.04,-71.92 6.04,-106.79 8.3,-23.96 28.4,-37.73 50.72,-34.73 2.81,0.38 8.53,2.05 10.32,3.97l0.18 7.36c15.16,31.32 7.04,97.36 7.04,140.7 53.15,0 38.63,7.97 38.72,-42.2 0.11,-57.85 15.17,-134.16 -49.25,-134.11 -36.82,0.03 -39.46,17.55 -59.92,32.33z"/>
      <path fill="#FFFFFF" d="M2835.7 284.43c-10.16,3.1 -19.3,2.79 -28.16,7.04 0,19.32 5.9,17.6 24.65,17.6 0,27.2 -3.95,108.13 1.92,128.27 9.15,31.39 47.77,30.75 67.58,22.09 12.57,-5.49 11.51,-7.22 11.51,-23.69 -20.28,1.69 -42.02,18.9 -42.42,-38.55 -0.2,-29.29 0.15,-58.79 0.15,-88.12l35.24 0 3.63 -14.08 -43.06 -3.67c-2.5,-22.67 1.89,-35.77 -4.04,-57.23 -35.48,3.07 -27.12,15.19 -26.69,50.53l-0.33 -0.18z"/>
      <path fill="#FFFFFF" d="M1881.17 287.95l-21.13 0 0 172.41c53.5,0 39.2,3.02 38.69,-31.48 -0.22,-14.85 -0.88,-34.88 0.2,-49.31 6.56,-87.98 58.88,-54.09 63.26,-52.92 0,-37.91 6.26,-42.22 -21.13,-42.22 -24.02,0 -33.32,24.89 -42.27,35.18l0 -35.18c-7.9,1.84 -8.1,3.52 -17.61,3.52z"/>
      <path fill="#FFFFFF" d="M2120.69 587.04c3.26,13.97 10.34,26.16 14.09,42.22l-28.18 0c0.26,-11.42 1.22,-14 4.8,-23.35l9.28 -18.87zm-49.31 84.45l21.13 0c0.29,-12.91 2.89,-19.5 7.04,-28.15l42.27 0c1.06,12.71 4.39,16.77 7.05,28.15l24.65 0 -32.17 -87.49c-10.34,-29.05 -7.82,-25.1 -24.19,-25.1 -13.37,0 -14.6,23.78 -25.69,51.75 -4.52,11.4 -19.28,50.98 -20.1,60.85z"/>
      <path fill="#FFFFFF" d="M1574.73 615.19l0 3.52c29.17,0 54.44,3.52 88.06,3.52l274.74 0c-2.09,-7.84 -0.82,-10.56 -10.57,-10.56l-235.99 0c-43.33,0 -73.28,3.52 -116.24,3.52z"/>
      <path fill="#FFFFFF" d="M2229.88 622.23l239.51 0c12.94,0 26,0.23 38.9,0.15 7.77,-0.05 12.32,0.14 19.76,-1.37 0.38,-0.08 6.74,-1.87 8.16,-2.4 8.46,-3.14 3.45,-1.07 7.15,-3.41 -29.78,0 -47.6,-3.71 -73.88,-3.6l-239.6 0.08 0 10.56z"/>
      <path fill="#FFFFFF" d="M2747.66 319.67l-0.18 -7.36c-1.79,-1.92 -7.51,-3.59 -10.32,-3.97 -22.32,-2.99 -42.41,10.78 -50.72,34.73 -12.08,34.88 -6.27,66.44 -6.04,106.79l-29.58 -0.06 0.45 -157.65 25.96 2.81c3.5,14.47 -1.22,10.3 7.03,21.42l0 -31.95c-14.44,1.2 -19.18,3.52 -38.75,3.52l0 172.41c65.85,0 29.62,9.98 41.25,-81.94 2.05,-16.21 5.32,-74.27 49.47,-65.21 7.38,1.52 7.31,2.84 11.43,6.45z"/>
      <path fill="#FFFFFF" d="M2060.81 653.91l-45.79 -0.02 -2.19 -28.15 -3.88 -42.69c0.25,-23.61 4.61,-13.44 -8.01,-16.8 -3,12.62 -2.87,85 -0.02,100l52.86 0.45c1.94,-8.32 3.75,-8.47 7.04,-12.8z"/>
      <path fill="#FFFFFF" d="M2060.81 653.91c-3.29,4.32 -5.1,4.48 -7.04,12.8l-52.86 -0.45c-2.85,-14.99 -2.98,-87.38 0.02,-100 12.62,3.36 8.26,-6.81 8.01,16.8l3.88 42.69c2.51,-9.52 2.62,-30.83 2.47,-46.13 -0.26,-27.61 -0.96,-17.2 -24.94,-17.2l3.52 109.08 66.92 0 0 -17.58z"/>
      <path fill="#FFFFFF" d="M2835.7 284.43l0.33 0.18c-0.44,-35.34 -8.79,-47.46 26.69,-50.53 5.92,21.47 1.53,34.56 4.04,57.23l43.06 3.67 -3.63 14.08c8.9,-6.59 8.96,-2.1 10.55,-21.11l-45.79 0 0 -63.34c-14.08,3.27 -23.81,9.31 -38.75,10.55 0,17.31 -2.23,34.41 3.5,49.26z"/>
    </svg>
