<?xml version="1.0" encoding="UTF-8"?>
<svg viewBox="0 0 8849.85 6023.86" xmlns="http://www.w3.org/2000/svg">
  <title>SonoraMente LA — Logo Vertical Colorido</title>
      <path fill="#521BA3" d="M3024.92 2293.88c104.43,8.68 99.52,47.14 267.3,47.14 179.01,0 406.17,-99.58 546.21,66.98 219.69,261.32 17.9,420.07 -43.02,420.07 -129.44,0 -201,-2.18 -283.04,-157.11 60.09,-16.02 125.16,-48.78 141.52,-109.97 -49.74,0 -434.6,125.52 -603.14,-198.63 -15.92,-30.64 -16.33,-47.22 -25.82,-68.48zm1430.81 -2105.33c-13.37,54.9 -10.73,4.9 7.53,69.97 47.35,168.52 7.98,372.13 23.18,623.18l-15.26 468.82c-3.14,97.44 16.07,123.15 16.07,204.93 -57.04,-41.75 -138.89,-283.42 -435.17,-429.31 -86.23,-42.48 -199.07,-114.89 -250.36,-189.77 -70.41,-102.81 -84.96,-189.92 -84.96,-355.04 -87.47,64.04 -75.82,262.94 -33.78,363.7 117.34,281.23 384.75,213.99 612.78,550.35 36.02,53.14 56.96,86.4 86.99,148.77 116.54,242.2 86.81,497.49 88.97,838.48 2.24,353.26 -209.91,464.55 -519.11,392.58 27.67,-76.37 114.95,-87.64 111.31,-235.04 -2.23,-90.89 -56.41,-210.69 -99.74,-263.57 -181.7,-221.75 -313.82,-190.51 -503.4,-165.46 -223.29,29.48 -426.36,-3.24 -541.73,-141.44 -214.09,-256.44 -72.47,-455.32 -51.39,-545.68 98.07,65.63 180.81,158.54 358.16,90.77 146.3,-55.9 372.89,-293.12 607.06,-159.62 41.86,23.87 47.42,45.2 72.34,57.35 107.47,52.42 90.76,-147.87 -149.69,-200.17 -148.75,-32.36 -299.23,33.89 -384.16,86.53 -91.69,56.82 -202.18,180.25 -346.76,94.08 -184,-109.66 -146.21,-622.43 141.8,-628.83 44.54,191.05 165.55,345.65 377.38,345.65 -6.6,-79.18 15.52,-22.17 -30.34,-63.96 -29.62,-26.99 -92.92,-39.01 -171.56,-158.52 -128.72,-195.58 -45.89,-469.21 141.52,-592.01 110.7,-72.55 180.78,-81.07 359.13,-81.07 99.24,148.08 76.75,159.28 242.48,260.49 111.76,68.23 146.52,65.92 198.8,178.43 24.25,52.22 4.35,57.77 77.62,63.85 29.1,-124.84 -24.31,-220.94 -119.18,-267.09 -19.96,19.06 -0.74,18.59 -45.58,-3.41l-129.2 -78.24c-2.78,-1.8 -6.85,-3.97 -9.54,-5.87 -3.78,-2.65 -14.11,-10.59 -17.6,-13.66 -67.08,-58.87 -108.67,-137.38 -49.37,-235.5 1.78,-2.95 4.5,-6.51 6.3,-9.42l11.96 -20.14c12.76,-20.15 5.01,-28.21 68.69,-58.95 25.16,-12.15 86.2,-34.54 125.39,-41.04 60.71,-10.07 111.96,8.95 157.21,25.09 55.29,19.71 68.32,28.67 95.18,79.79zm-565.99 15.7c-178.28,-27.34 -337.2,-19.55 -491.56,105.88 -306.87,249.38 -145.81,366.91 -295.76,427.22 -137.11,55.17 -188.29,95.61 -261.53,241.46 -83.65,166.56 -45.37,245.42 -37.3,391.52 3.96,71.44 -11.36,61.22 -45.76,106.77 -122.84,162.64 -92.97,403.51 -0.7,581.6 52.71,101.75 75.99,68.64 117.18,212.86 45.73,160.05 153.32,301.9 286.63,373.5 133.76,71.82 191.2,25.96 241.47,88.67 20.49,25.57 5.31,28.95 66.18,90.98 135.27,137.84 179.21,92.79 352.52,150.54 187.1,62.34 351.17,88.87 542.51,12.14 154.23,-61.84 249.44,-231.07 249.44,-426.36l0 -2231.04c0,-154.04 -129.02,-329.95 -314.48,-329.95 -177.55,0 -310.61,18.76 -408.83,204.25z"/>
      <path fill="#511DA6" d="M6248.37 2130.31l-59.65 7.39c86.59,-41.1 93.53,-8.99 156.72,-52.45 -27.6,3.07 -127.12,10.08 -141.62,-22.72 -3.3,-7.47 -8.74,-7.52 -13.12,-11.42l73.4 8.24 -62.98 -16.84c-405.52,-40.66 -611.38,-281.99 -974.32,-283.44 -129.08,-0.5 -443.95,44.45 -482.12,180.27 -10.54,37.44 -3.19,29.08 -2.52,61.74l1.49 211.88c-8.42,632.94 -88.3,779.27 217.91,554.8 233.4,-171.11 252.55,-374.56 334.3,-498.68 181.57,-275.65 349.22,-130.1 622.18,-116.49 67.8,3.38 282.18,20.77 330.33,-22.3z"/>
      <path fill="#4E1DA6" d="M4738.84 1099.8c12.77,54.8 18.96,66.16 15.73,141.56 -0.71,16.44 -4.7,57.49 -4.87,65.14 -0.37,17.93 3.94,34.55 4.87,76.12 430.11,-287.79 906.08,-216.99 1352.27,0 212.73,103.45 490.54,188.54 786.2,188.54 152.09,0 365.64,-69.18 424.56,-157.11 -442.13,102.93 -834.45,-30.61 -1204.13,-258 -158.57,-97.55 -317.84,-190.54 -511.51,-227.36 -218.23,-41.47 -431.23,-29.42 -621.64,35.35 -126.47,43.04 -149.46,74.2 -241.49,135.78z"/>
      <path fill="#511DA6" d="M4820.32 1476.89l13.23 46.41c-63.17,14.56 -22.1,-5.95 -61.94,32.14 14.68,63.77 17.6,96.61 3.79,163.62 72.45,-5.7 145.84,-68.1 262.21,-67.85 197.01,-7.28 250.77,-51.55 494.6,-8.64 174.15,30.64 293.63,92.81 448.7,132.98 266.7,69.1 589.98,138.24 876.17,11.05 50.1,-22.29 68.91,-20.71 83.16,-74.04 -832.79,193.86 -1202.73,-610.66 -1900.59,-359.32 -30.86,11.12 -87.87,32.51 -121.59,51.35l-97.74 72.3z"/>
      <path fill="#4E1DA6" d="M4754.58 408.5l-15.73 565.61c244.14,-129.07 384.67,-188.54 691.87,-188.54 151.93,0 243.05,50.96 361.65,78.56 -179.43,-338.82 -740.83,-731.84 -1037.79,-738.44l0 282.81z"/>
      <path fill="#521BA3" d="M3465.18 1901.1c-92.5,0 -170.16,6.63 -250.88,-32.13 -39.93,-19.18 -77.97,-49.18 -126.49,-62.15 3.25,145.88 199.05,219.96 330.21,219.96 237.78,0 473.03,-258.4 695.98,-4.1 20.63,23.53 49.5,62.06 67.37,89.79 36.43,56.56 14.28,49.82 70.04,87.14 4.47,-53.64 60.3,-134.01 -97.8,-295.08 -253.21,-257.94 -515.41,-3.43 -688.41,-3.43z"/>
      <path fill="#4C1B93" d="M4242.29 549.91c-50.34,-53.94 -342.68,-160.25 -237.38,-324.58 61.15,-95.45 202.99,-139.54 334.36,-93.25 23.54,8.3 35.95,16.24 52.51,25.07l63.96 31.4c-26.86,-51.12 -39.89,-60.08 -95.18,-79.79 -45.25,-16.14 -96.5,-35.16 -157.21,-25.09 -39.19,6.5 -100.24,28.89 -125.39,41.04 -63.68,30.75 -55.93,38.8 -68.69,58.95l-11.96 20.14c-1.8,2.91 -4.53,6.47 -6.3,9.42 -59.3,98.13 -17.71,176.63 49.37,235.5 3.49,3.06 13.82,11.01 17.6,13.66 2.69,1.9 6.75,4.07 9.54,5.87l129.2 78.24c44.83,22 25.62,22.47 45.58,3.41z"/>
      <path fill="#481886" d="M5037.62 1651.21c-116.38,-0.24 -189.77,62.16 -262.21,67.85 13.81,-67.02 10.88,-99.85 -3.79,-163.62 39.83,-38.09 -1.23,-17.58 61.94,-32.14l-13.23 -46.41 -85.25 74.72c19.11,69.64 35.47,157.81 3.77,223.8l289.43 -118.38c2.03,-1.03 6.23,-3.85 9.34,-5.81z"/>
      <path fill="#4A148C" d="M6264.09 2059.36l-73.4 -8.24c4.39,3.9 9.83,3.94 13.12,11.42 14.5,32.8 114.02,25.79 141.62,22.72 -63.19,43.45 -70.13,11.35 -156.72,52.45l59.65 -7.39c69.19,11.02 94.67,-5.51 141.6,-24.89 56.91,-23.52 75.05,-15.28 109.98,-62.92 -86.38,0 -136.06,14.04 -235.86,16.86z"/>
      <path fill="#4F1DA2" d="M4704.44 5064.77l192.02 0c0,-167.88 29.11,-335.58 45.16,-482.38 16.39,-149.76 50.86,-334.94 50.86,-476.7 2.16,3.38 4.32,5.17 5.05,10.93l244.79 698.56c30.86,88.16 64.84,158.04 86.2,249.59l112 0c25.54,-48.2 29.02,-76.15 47.97,-127.93 15.92,-43.53 33.21,-79.6 49.93,-125.95 23.96,-66.44 267.09,-728.85 302.15,-769.16 0,323.3 64.01,749.5 64.01,1023.04l192.02 0c0,-82.22 -12.89,-225.44 -25.21,-310.51l-55.09 -648.29c-4.91,-99.39 -31.71,-215.92 -31.71,-320l-208.03 0c-5.31,63.94 -64.01,180.2 -89.25,246.52l-180.75 490.81c-16.49,45.81 -26.19,65.16 -43.99,115.89l-42.29 101.62c-1.44,2.7 -4.69,7.99 -5.86,10.14 -1.18,2.16 -3.67,6.89 -5.89,10.09l-310.6 -872.62c-45.62,-120.41 -5.19,-102.45 -233.45,-102.45l-78.66 640.74c-12.66,110.52 -23.03,199.34 -38.07,313.66 -11.07,84.28 -43.29,231.65 -43.29,324.39z"/>
      <path fill="#4F1DA2" d="M16 4137.65c0,110.75 71.1,201.89 148.46,267.3 153.45,129.72 454.08,157.64 432.81,378.02 -34.19,354.46 -543.56,98.76 -581.27,89.98 0,71.06 8.31,93.26 -16,143.86 199.98,95.85 800.08,159.74 800.08,-319.69 0,-370.64 -576.05,-358.43 -576.05,-591.43 0,-113.81 18.94,-223.81 208.01,-223.81 125.79,0 212.47,45.39 288.03,95.91 0,-80.91 10.86,-82.21 16.01,-143.85 -251.38,-132.86 -720.08,-88.56 -720.08,303.72z"/>
      <path fill="#4F1DA2" d="M4160.39 4968.86c-124.65,0 -138.97,-197.33 -0.87,-256.62 40.6,-17.43 127.36,-35.57 176.89,-47.08 0,131.45 -9.28,303.71 -176.02,303.71zm-224.02 -479.55c119.1,-31.77 55.81,-95.91 272.03,-95.91 124.23,0 133.64,99.04 112.01,191.82 -127.85,0 -448.06,74.14 -448.06,287.73 0,159.8 99.92,207.8 240.03,207.8 121.68,0 152.98,-64.36 224.02,-111.89 105.1,198.43 288.03,95.28 288.03,31.98 0,-126.49 -115.25,91.65 -113.41,-142.45 2.92,-366 56.26,-592.86 -302.63,-592.86 -85.3,0 -144.44,20.82 -203.79,52.24 -107.93,57.11 -70.58,66.61 -68.24,171.55z"/>
      <path fill="#4F1DA2" d="M2880.27 4984.84c-245.84,0 -240.7,-623.4 16.01,-623.4 215.4,0 217.6,354.09 149.74,517.25 -30.94,74.42 -67.2,106.15 -165.75,106.15zm-368.03 -367.65c0,132.02 -3.41,238.49 92.83,354.84 149.19,180.37 675.24,180.59 675.24,-306.87 0,-211.88 -143.31,-399.63 -352.04,-399.63 -176.27,0 -308.7,41.39 -380.19,211.63 -20.11,47.87 -35.84,77.82 -35.84,140.04z"/>
      <path fill="#521B9D" d="M1824.17 4281.52l-96 0 0 783.25c309.55,0 127.07,15.37 184.86,-390.79 10.5,-73.76 16.37,-280.58 199.18,-280.58 76.57,0 112,54.1 112,127.88l0 543.49c244.61,0 173.07,99.19 176.13,-463.67 1.06,-195.16 -13.65,-335.57 -240.12,-335.57 -150.83,0 -169.04,85.68 -256.04,143.86l0 -143.86c-35.89,8.35 -36.79,15.99 -80,15.99z"/>
      <path fill="#4F1DA2" d="M1264.12 4984.84c-190.6,0 -208.03,-162.27 -208.03,-351.66 0,-378.74 391.32,-361.69 375.11,27.5 -6.14,147.33 -23.25,324.16 -167.08,324.16zm-400.04 -319.68c0,517.38 534.06,472.66 666.19,297.83 89.57,-118.52 118.07,-283.76 72.68,-444.46 -16.48,-58.36 -35.63,-88.02 -65.86,-126.08 -172.51,-217.31 -673.01,-180.43 -673.01,272.7z"/>
      <path fill="#521B9D" d="M8368.79 4665.15c0,-591.76 538.91,-169.83 197.23,-42.76 -44.75,16.63 -145.48,41.6 -197.23,42.76zm-192.02 0c0,215.66 125.55,415.59 336.03,415.59 155.25,0 336.03,0.03 336.03,-191.81 -26.4,7.03 -272.33,171.8 -412.38,12.32 -50.11,-57.05 -38.94,-96.39 -67.67,-156.2 660.04,0 562.65,-479.54 176.02,-479.54 -128.72,0 -206.3,43.06 -267.85,116.05 -52.41,62.16 -100.18,177.97 -100.18,283.57z"/>
      <path fill="#4F1DA2" d="M6352.6 4665.15c52.17,-108.64 -17.81,-303.72 208.03,-303.72 107.57,0 219.87,294.19 -208.03,303.72zm176 415.59c358.11,0 295.25,-140.2 320.03,-191.81 -0.31,0.07 -446.62,257.26 -480.04,-143.88 182.1,0 464.05,-55.88 464.05,-223.79 0,-360.35 -652.55,-383 -661.26,162.34 -3.46,216.1 119.06,397.13 357.22,397.13z"/>
      <path fill="#4F1DA2" d="M7120.67 4410.69c-37.47,-50.51 -16.04,-31.56 -31.92,-97.29l-117.96 -12.77 -2.05 716.19 134.38 0.26c-1.04,-183.33 -27.43,-326.7 27.45,-485.15 37.72,-108.84 129.01,-171.39 230.4,-157.79 12.77,1.72 38.75,9.32 46.89,18.02l0.84 33.44c68.87,142.26 32,442.3 32,639.18 241.46,0 175.51,36.19 175.92,-191.69 0.49,-262.83 68.91,-609.48 -223.74,-609.26 -167.29,0.12 -179.24,79.74 -272.22,146.87z"/>
      <path fill="#4F1DA2" d="M7808.64 4265.53c-46.17,14.07 -87.69,12.68 -127.92,31.97 0,87.79 26.8,79.93 112,79.93 0,123.58 -17.93,491.23 8.74,582.71 41.58,142.61 217.01,139.7 307.02,100.37 57.09,-24.95 52.27,-32.8 52.27,-107.63 -92.14,7.67 -190.89,85.85 -192.7,-175.13 -0.93,-133.07 0.7,-267.1 0.7,-400.31l160.1 0 16.5 -63.94 -195.61 -16.68c-11.36,-102.99 8.57,-162.49 -18.33,-260.01 -161.16,13.95 -123.22,69.03 -121.24,229.57l-1.52 -0.84z"/>
      <path fill="#521B9D" d="M3472.33 4281.52l-96.01 0 0 783.25c243.02,0 178.09,13.73 175.76,-143.02 -1.01,-67.46 -4.01,-158.44 0.89,-224.01 29.78,-399.7 267.47,-245.71 287.39,-240.4 0,-172.22 28.45,-191.82 -96,-191.82 -109.14,0 -151.35,113.09 -192.03,159.84l0 -159.84c-35.89,8.35 -36.79,15.99 -80,15.99z"/>
      <path fill="#521B9D" d="M4560.43 5640.23c14.79,63.44 46.98,118.84 64.01,191.82l-128.01 0c1.16,-51.86 5.56,-63.58 21.83,-106.07l42.18 -85.75zm-224.02 383.64l96.01 0c1.3,-58.66 13.13,-88.59 31.99,-127.88l192.02 0c4.82,57.74 19.95,76.17 32.01,127.88l112 0 -146.15 -397.48c-46.98,-131.96 -35.52,-114.04 -109.88,-114.04 -60.74,0 -66.33,108.03 -116.69,235.1 -20.51,51.78 -87.58,231.59 -91.31,276.43z"/>
      <path fill="#521B9D" d="M2080.19 5768.1l0 15.99c132.53,0 247.3,15.99 400.04,15.99l1248.11 0c-9.51,-35.63 -3.75,-47.97 -48,-47.97l-1072.1 0c-196.84,0 -332.9,15.99 -528.06,15.99z"/>
      <path fill="#4D1A9C" d="M5056.48 5800.08l1088.08 0c58.77,0 118.13,1.07 176.72,0.7 35.28,-0.22 55.98,0.63 89.76,-6.24 1.73,-0.35 30.6,-8.5 37.08,-10.92 38.44,-14.26 15.65,-4.85 32.46,-15.51 -135.27,0 -216.23,-16.85 -335.65,-16.36l-1088.47 0.37 0 47.97z"/>
      <path fill="#4C1B8C" d="M7408.7 4425.59l-0.84 -33.44c-8.13,-8.7 -34.11,-16.3 -46.89,-18.02 -101.39,-13.6 -192.68,48.95 -230.4,157.79 -54.88,158.45 -28.5,301.83 -27.45,485.15l-134.38 -0.26 2.05 -716.19 117.96 12.77c15.88,65.73 -5.55,46.78 31.92,97.29l0 -145.16c-65.59,5.45 -87.11,15.99 -176.02,15.99l0 783.25c299.15,0 134.56,45.32 187.41,-372.26 9.32,-73.64 24.15,-337.4 224.72,-296.23 33.54,6.89 33.21,12.89 51.91,29.31z"/>
      <path fill="#551CA3" d="M4288.41 5944.01l-208.03 -0.08 -9.97 -127.88 -17.65 -193.92c1.15,-107.27 20.93,-61.08 -36.39,-76.32 -13.61,57.32 -13.02,386.17 -0.08,454.29l240.12 2.05c8.81,-37.78 17.06,-38.5 31.99,-58.14z"/>
      <path fill="#532394" d="M4288.41 5944.01c-14.93,19.64 -23.18,20.36 -31.99,58.14l-240.12 -2.05c-12.94,-68.12 -13.53,-396.97 0.08,-454.29 57.32,15.25 37.54,-30.94 36.39,76.32l17.65 193.92c11.41,-43.24 11.9,-140.07 11.24,-209.58 -1.16,-125.45 -4.35,-78.15 -113.28,-78.15l16.01 495.54 304.02 0 0 -79.85z"/>
      <path fill="#4A148C" d="M7808.64 4265.53l1.52 0.84c-1.98,-160.55 -39.93,-215.63 121.24,-229.57 26.91,97.52 6.97,157.02 18.33,260.01l195.61 16.68 -16.5 63.94c40.42,-29.95 40.73,-9.56 47.92,-95.91l-208.02 0 0 -287.73c-63.94,14.87 -108.17,42.32 -176.03,47.94 0,78.66 -10.15,156.33 15.92,223.8z"/>
    </svg>
